<svg xmlns="http://www.w3.org/2000/svg" width="64" height="64" viewBox="0 0 64 64">
  <g id="Group_39531" data-name="Group 39531" transform="translate(-582 -228)">
    <rect id="Rectangle_24146" data-name="Rectangle 24146" width="64" height="64" rx="8" transform="translate(582 228)" fill="#ff0058" opacity="0.08"/>
    <g id="_90747ebb09243cec622b1753a7e4e1b2" data-name="90747ebb09243cec622b1753a7e4e1b2" transform="translate(601 247)">
      <path id="Path_45671" data-name="Path 45671" d="M3.4,11v1.6H1.8a.8.8,0,0,1,0-1.6Zm0,3.2v1.6H1.8a.8.8,0,0,1,0-1.6Zm0,3.2V19H1.8a.8.8,0,0,1,0-1.6Z" transform="translate(0 -2.2)" fill="#ff0058"/>
      <path id="Path_45672" data-name="Path 45672" d="M23,0H5.4A2.4,2.4,0,0,0,3,2.4V8.8H5.4a.8.8,0,1,1,0,1.6H3V12H5.4a.8.8,0,0,1,0,1.6H3v1.6H5.4a.8.8,0,1,1,0,1.6H3v6.4a2.4,2.4,0,0,0,2.4,2.4H23a2.4,2.4,0,0,0,2.4-2.4V2.4A2.4,2.4,0,0,0,23,0ZM14.2,7.6a2,2,0,1,1-2,2A2,2,0,0,1,14.2,7.6Zm4.4,10a.4.4,0,0,1-.4.4h-8a.4.4,0,0,1-.4-.4v-.8a3.608,3.608,0,0,1,3.6-3.6H15a3.608,3.608,0,0,1,3.6,3.6Z" transform="translate(-0.4)" fill="#ff0058"/>
    </g>
  </g>
</svg>
