<svg xmlns="http://www.w3.org/2000/svg" width="64" height="64" viewBox="0 0 64 64">
  <g id="Group_39045" data-name="Group 39045" transform="translate(-582 -228)">
    <rect id="Rectangle_24146" data-name="Rectangle 24146" width="64" height="64" rx="8" transform="translate(582 228)" fill="#0b80fd" opacity="0.08"/>
    <g id="_481f613ea0a397036897df21c227426c" data-name="481f613ea0a397036897df21c227426c" transform="translate(598 244)">
      <path id="Path_45248" data-name="Path 45248" d="M0,0H32V32H0Z" fill="none"/>
      <path id="Path_45249" data-name="Path 45249" d="M27.422,18.633a10.466,10.466,0,0,0,.093-1.3,10.467,10.467,0,0,0-.093-1.3l2.82-2.207a.665.665,0,0,0,.16-.853l-2.667-4.62a.66.66,0,0,0-.813-.287L23.6,9.407a10.117,10.117,0,0,0-2.253-1.313l-.5-3.533A.686.686,0,0,0,20.182,4H14.849a.673.673,0,0,0-.66.56l-.5,3.533a9.867,9.867,0,0,0-2.253,1.313l-3.32-1.34a.667.667,0,0,0-.813.287l-2.667,4.62a.668.668,0,0,0,.16.853l2.813,2.207a10.466,10.466,0,0,0-.093,1.3,10.466,10.466,0,0,0,.093,1.3L4.8,20.84a.665.665,0,0,0-.16.853L7.3,26.313a.66.66,0,0,0,.813.287l3.32-1.34a10.117,10.117,0,0,0,2.253,1.313l.5,3.533a.673.673,0,0,0,.66.56h5.333a.673.673,0,0,0,.66-.56l.5-3.533A9.867,9.867,0,0,0,23.6,25.26l3.32,1.34a.667.667,0,0,0,.813-.287l2.667-4.62a.668.668,0,0,0-.16-.853ZM17.515,22a4.667,4.667,0,1,1,4.667-4.667A4.663,4.663,0,0,1,17.515,22Z" transform="translate(-1.515 -1.333)" fill="#0b80fd"/>
    </g>
  </g>
</svg>
