<svg xmlns="http://www.w3.org/2000/svg" width="64" height="64" viewBox="0 0 64 64">
  <g id="Group_39088" data-name="Group 39088" transform="translate(-582 -228)">
    <rect id="Rectangle_24146" data-name="Rectangle 24146" width="64" height="64" rx="8" transform="translate(582 228)" fill="#69c62f" opacity="0.08"/>
    <g id="Layer_2" transform="translate(597.65 242)">
      <path id="Path_45250" data-name="Path 45250" d="M15.22,5.017A9.5,9.5,0,0,0,7.926,7.831a1.6,1.6,0,0,0,2.287,2.239,6.24,6.24,0,0,1,4.833-1.859,6.349,6.349,0,0,1,4.183,1.863A1.6,1.6,0,1,0,21.5,7.827,9.534,9.534,0,0,0,15.22,5.017Z" transform="translate(1.272 1.801)" fill="#69c62f"/>
      <path id="Path_45251" data-name="Path 45251" d="M26.167,6.233a14.347,14.347,0,0,0-20.356,0A1.6,1.6,0,0,0,8.089,8.484a11.144,11.144,0,0,1,15.806,0,1.6,1.6,0,0,0,2.272-2.255ZM15.99,13.2a6.4,6.4,0,0,0-1.6,12.592,6.258,6.258,0,0,0,3.2,0A6.4,6.4,0,0,0,15.99,13.2Zm-1.6,14.24V32.4a1.6,1.6,0,0,0,3.2,0V27.44a8.08,8.08,0,0,1-3.2,0Z" transform="translate(0 0)" fill="#69c62f"/>
    </g>
  </g>
</svg>
