<svg xmlns="http://www.w3.org/2000/svg" width="64" height="64" viewBox="0 0 64 64">
  <g id="Group_39087" data-name="Group 39087" transform="translate(-582 -228)">
    <rect id="Rectangle_24146" data-name="Rectangle 24146" width="64" height="64" rx="8" transform="translate(582 228)" fill="#fa0" opacity="0.08"/>
    <g id="_7783670ad52b6ffcbe602a1ad07c2344" data-name="7783670ad52b6ffcbe602a1ad07c2344" transform="translate(602 248)">
      <path id="Path_45243" data-name="Path 45243" d="M20.923,0H3.077A3.082,3.082,0,0,0,0,3.077V19.542H3.365a1.511,1.511,0,0,1,1.511,1.511V23.99H20.923A3.082,3.082,0,0,0,24,20.912V3.077A3.082,3.082,0,0,0,20.923,0ZM12,14.309H3.979a.756.756,0,0,1,0-1.511H12a.756.756,0,0,1,0,1.511Zm0-3.979H3.979a.756.756,0,1,1,0-1.511H12a.756.756,0,0,1,0,1.511Zm0-3.974H3.979a.756.756,0,0,1,0-1.511H12a.756.756,0,0,1,0,1.511Zm5.651,10.889a.277.277,0,0,1-.423,0l-2.2-2.554h.841a.277.277,0,0,0,.277-.277V5.878a.277.277,0,0,1,.277-.277h2.015a.282.282,0,0,1,.282.277v8.537a.272.272,0,0,0,.277.277h.831Z" fill="#fa0"/>
      <path id="Path_45244" data-name="Path 45244" d="M0,40.43l3.989,3.637V41.457A1.007,1.007,0,0,0,2.982,40.45Z" transform="translate(0 -20.067)" fill="#fa0"/>
    </g>
  </g>
</svg>
