<svg xmlns="http://www.w3.org/2000/svg" width="64" height="64" viewBox="0 0 64 64">
  <g id="Group_39533" data-name="Group 39533" transform="translate(-582 -228)">
    <rect id="Rectangle_24146" data-name="Rectangle 24146" width="64" height="64" rx="8" transform="translate(582 228)" fill="#24601c" opacity="0.08"/>
    <path id="_264d580cae98beb5a6b783838c0ba7d8" data-name="264d580cae98beb5a6b783838c0ba7d8" d="M14.5.5a14,14,0,1,0,14,14A14.012,14.012,0,0,0,14.5.5ZM7.446,10.155a2.71,2.71,0,1,1,2.71,2.71A2.706,2.706,0,0,1,7.446,10.155Zm3.667,11.868a1.355,1.355,0,1,1-2.258-1.5L17.887,6.976a1.355,1.355,0,0,1,2.258,1.5Zm7.732-.47a2.71,2.71,0,1,1,2.71-2.71A2.712,2.712,0,0,1,18.845,21.554Z" transform="translate(599.5 245.5)" fill="#24601c"/>
  </g>
</svg>
