<svg xmlns="http://www.w3.org/2000/svg" width="48" height="48" viewBox="0 0 48 48">
  <g id="Group_39095" data-name="Group 39095" transform="translate(-592 -177)">
    <rect id="Rectangle_24146" data-name="Rectangle 24146" width="48" height="48" rx="8" transform="translate(592 177)" fill="#0b80fd" opacity="0.08"/>
    <g id="_695d8cb6dde026c3c6f0e2245b1de979" data-name="695d8cb6dde026c3c6f0e2245b1de979" transform="translate(603 188)">
      <path id="Path_45664" data-name="Path 45664" d="M18.525,4.675l-2.2-1.155C14.394,2.507,13.429,2,12.39,2s-2,.507-3.935,1.52L8.1,3.706l9.815,5.609,4.418-2.209A13.669,13.669,0,0,0,18.525,4.675Z" transform="translate(0.61)" fill="#0b80fd"/>
      <path id="Path_45665" data-name="Path 45665" d="M22.648,7.964l-4.4,2.2V13.5a.825.825,0,1,1-1.65,0V10.988l-3.85,1.925V23.3a15.858,15.858,0,0,0,3.11-1.415l2.2-1.154c2.367-1.242,3.55-1.863,4.207-2.979s.657-2.5.657-5.282v-.129A18.009,18.009,0,0,0,22.648,7.964Z" transform="translate(1.075 0.596)" fill="#0b80fd"/>
      <path id="Path_45666" data-name="Path 45666" d="M12.175,23.3V12.913l-9.9-4.949A18.006,18.006,0,0,0,2,12.339v.129c0,2.777,0,4.166.657,5.282S4.5,19.487,6.865,20.729l2.2,1.154A15.86,15.86,0,0,0,12.175,23.3Z" transform="translate(0 0.596)" fill="#0b80fd"/>
      <path id="Path_45667" data-name="Path 45667" d="M2.96,6.868,12.9,11.84l3.752-1.876L6.881,4.378l-.112.059A13.67,13.67,0,0,0,2.96,6.868Z" transform="translate(0.096 0.238)" fill="#0b80fd"/>
    </g>
  </g>
</svg>
