<svg xmlns="http://www.w3.org/2000/svg" width="48" height="48" viewBox="0 0 48 48">
  <g id="Group_39098" data-name="Group 39098" transform="translate(-592 -651)">
    <rect id="Rectangle_24153" data-name="Rectangle 24153" width="48" height="48" rx="8" transform="translate(592 651)" fill="#e62e4c" opacity="0.08"/>
    <g id="Group_39522" data-name="Group 39522" transform="translate(604 663)">
      <rect id="Rectangle_24416" data-name="Rectangle 24416" width="12" height="18" rx="2" transform="translate(12 6.002)" fill="#e62e4c"/>
      <rect id="Rectangle_24417" data-name="Rectangle 24417" width="12" height="18" rx="2" transform="translate(6 3.002)" fill="#e62e4c" opacity="0.5"/>
      <path id="Subtraction_254" data-name="Subtraction 254" d="M10,18H2a2,2,0,0,1-2-2V15H4a2,2,0,0,0,2-2V0h4a2,2,0,0,1,2,2V16A2,2,0,0,1,10,18Z" transform="translate(11.998 18.002) rotate(180)" fill="#e62e4c" opacity="0.24"/>
    </g>
  </g>
</svg>
