<svg xmlns="http://www.w3.org/2000/svg" width="48" height="48" viewBox="0 0 48 48">
  <g id="Group_39097" data-name="Group 39097" transform="translate(-1136 -414)">
    <rect id="Rectangle_24150" data-name="Rectangle 24150" width="48" height="48" rx="8" transform="translate(1136 414)" fill="#f907a5" opacity="0.08"/>
    <path id="b8808aff06912fde59ce8eaa51eed46d" d="M23.162,4.827C18.88.541,11.307,1.172,6.248,6.238S.557,18.884,4.839,23.171a9.815,9.815,0,0,0,6.306,2.805,2.754,2.754,0,0,0,2.71-3.74l-.405-1.082a1.721,1.721,0,0,1,2.007-2.426l1.693.53a6.706,6.706,0,0,0,8.636-5A10.417,10.417,0,0,0,23.162,4.827ZM7.571,20a2.143,2.143,0,1,1,2.143-2.143A2.143,2.143,0,0,1,7.571,20Zm1.714-7.714a2.143,2.143,0,1,1,2.143-2.143A2.143,2.143,0,0,1,9.285,12.283ZM17,9.712a2.143,2.143,0,1,1,2.143-2.143A2.143,2.143,0,0,1,17,9.712Zm4.286,6a2.143,2.143,0,1,1,2.143-2.143A2.143,2.143,0,0,1,21.285,15.712Z" transform="translate(1146 424.016)" fill="#f907a5"/>
  </g>
</svg>
