<svg xmlns="http://www.w3.org/2000/svg" width="48" height="48" viewBox="0 0 48 48">
  <g id="Group_39094" data-name="Group 39094" transform="translate(-1136 -177)">
    <rect id="Rectangle_24147" data-name="Rectangle 24147" width="48" height="48" rx="8" transform="translate(1136 177)" fill="#62ba57" opacity="0.08"/>
    <g id="products" transform="translate(1148 189)">
      <path id="Path_45670" data-name="Path 45670" d="M17.813,9.793V3.515a.375.375,0,0,0-.187-.325L12.188.05a.375.375,0,0,0-.375,0L6.375,3.19a.375.375,0,0,0-.187.325V9.793a.375.375,0,0,0,.187.325l5.438,3.139a.375.375,0,0,0,.375,0l5.438-3.139A.375.375,0,0,0,17.813,9.793ZM12,6.221,7.313,3.515,12,.808l4.688,2.706Zm5.063,3.356-4.688,2.706V6.87l4.688-2.706Zm-5.625,4.306L6,10.743a.375.375,0,0,0-.375,0L.188,13.882A.375.375,0,0,0,0,14.207v6.279a.375.375,0,0,0,.187.325L5.625,23.95a.375.375,0,0,0,.375,0l5.438-3.139a.375.375,0,0,0,.188-.325V14.207a.375.375,0,0,0-.187-.325ZM5.813,16.914,1.125,14.207,5.813,11.5,10.5,14.207Zm5.063,3.356L6.188,22.976V17.563l4.688-2.706Zm12.938-6.387-5.438-3.139a.375.375,0,0,0-.375,0l-5.438,3.139a.375.375,0,0,0-.187.325v6.279a.375.375,0,0,0,.187.325L18,23.95a.375.375,0,0,0,.375,0l5.438-3.139A.375.375,0,0,0,24,20.486V14.207a.375.375,0,0,0-.187-.325Zm-5.625,3.031L13.5,14.207,18.188,11.5l4.688,2.706Zm5.063,3.356-4.688,2.706V17.563l4.688-2.706Z" transform="translate(0 0)" fill="#62ba57"/>
    </g>
  </g>
</svg>
