<svg xmlns="http://www.w3.org/2000/svg" width="48" height="48" viewBox="0 0 48 48">
  <g id="Group_39523" data-name="Group 39523" transform="translate(-856 -767)">
    <rect id="Rectangle_24152" data-name="Rectangle 24152" width="48" height="48" rx="8" transform="translate(856 767)" fill="#fa0" opacity="0.08"/>
    <path id="Path_45663" data-name="Path 45663" d="M23.6,4.2H19a3.279,3.279,0,0,0-6.193,0H8.2A2.2,2.2,0,0,0,6,6.4V21.8A2.2,2.2,0,0,0,8.2,24H23.6a2.2,2.2,0,0,0,2.2-2.2V6.4A2.2,2.2,0,0,0,23.6,4.2Zm-7.7,0a1.1,1.1,0,1,1-1.1,1.1A1.1,1.1,0,0,1,15.9,4.2Zm2.2,15.4H10.4V17.4h7.7Zm3.3-4.4h-11V13h11Zm0-4.4h-11V8.6h11Z" transform="translate(864 778)" fill="#fa0"/>
  </g>
</svg>
