<svg xmlns="http://www.w3.org/2000/svg" width="48" height="48" viewBox="0 0 48 48">
  <g id="Group_39516" data-name="Group 39516" transform="translate(-1136 -177)">
    <rect id="Rectangle_24147" data-name="Rectangle 24147" width="48" height="48" rx="8" transform="translate(1136 177)" fill="#ff3000" opacity="0.08"/>
    <g id="_20dc7cecd3ee77854bc6b64716aa9af8" data-name="20dc7cecd3ee77854bc6b64716aa9af8" transform="translate(1147.001 188)">
      <path id="Path_45217" data-name="Path 45217" d="M11.756,25a1.088,1.088,0,0,1-1.08-1.211l.84-7.734H5.091a1.091,1.091,0,0,1-.905-1.7L12.793,1.48a1.086,1.086,0,0,1,1.985.676l-.84,7.789h6.425a1.091,1.091,0,0,1,.905,1.7L12.662,24.52a1.091,1.091,0,0,1-.905.48Z" transform="translate(0 0)" fill="#ff3100"/>
    </g>
  </g>
</svg>
