<svg xmlns="http://www.w3.org/2000/svg" width="48" height="48" viewBox="0 0 48 48">
  <g id="Group_39507" data-name="Group 39507" transform="translate(-1136 -177)">
    <rect id="Rectangle_24147" data-name="Rectangle 24147" width="48" height="48" rx="8" transform="translate(1136 177)" fill="#2035a7" opacity="0.08"/>
    <g id="baa586a5d8d7b297edaceac4f78881db" transform="translate(1137 177)">
      <path id="Path_45668" data-name="Path 45668" d="M14.2,31.5h0A2.206,2.206,0,0,1,12,29.3V26h4.4v3.3A2.206,2.206,0,0,1,14.2,31.5Zm4.4,0h0a2.206,2.206,0,0,1-2.2-2.2V26h4.4v3.3A2.206,2.206,0,0,1,18.6,31.5Zm4.4,0h0a2.206,2.206,0,0,1-2.2-2.2V26h4.4v3.3A2.206,2.206,0,0,1,23,31.5Zm4.4,0h0a2.206,2.206,0,0,1-2.2-2.2V26h4.4v3.3A2.206,2.206,0,0,1,27.4,31.5Zm4.4,0h0a2.206,2.206,0,0,1-2.2-2.2V26H34v3.3A2.206,2.206,0,0,1,31.8,31.5Z" transform="translate(0 -5.85)" fill="#2035a7"/>
      <path id="Path_45669" data-name="Path 45669" d="M29.6,25.1a2.75,2.75,0,0,1-4.4,0,2.75,2.75,0,0,1-4.4,0,2.75,2.75,0,0,1-4.4,0,2.787,2.787,0,0,1-2.2,1.1v7.15a1.1,1.1,0,0,0,1.1,1.1H30.7a1.1,1.1,0,0,0,1.1-1.1V26.2A2.787,2.787,0,0,1,29.6,25.1Zm-9.35,8.8h-3.3V28.95a.52.52,0,0,1,.55-.55h2.75Zm4.4,0h-3.3V28.4h3.3Zm4.4,0h-3.3V28.4H28.5a.52.52,0,0,1,.55.55ZM34,20.15H12l2.475-6.435A1.075,1.075,0,0,1,15.52,13H30.535a1.128,1.128,0,0,1,1.045.715Z" fill="#2035a7"/>
    </g>
  </g>
</svg>
