<svg xmlns="http://www.w3.org/2000/svg" width="48" height="48" viewBox="0 0 48 48">
  <g id="Group_39514" data-name="Group 39514" transform="translate(-592 -414)">
    <rect id="Rectangle_24148" data-name="Rectangle 24148" width="48" height="48" rx="8" transform="translate(592 414)" fill="#ff7600" opacity="0.08"/>
    <path id="d1eec222d9069b7798b31fe91b257436" d="M5.649,5.649a12,12,0,1,0,16.971,0,12,12,0,0,0-16.971,0Zm14.86,9.235h-6.4c-.011,0-.021.006-.032.006a.8.8,0,0,1-.8-.8V6.044a.8.8,0,1,1,1.607,0v7.232h5.625a.8.8,0,1,1,0,1.607Z" transform="translate(601.864 423.865)" fill="#ff7600"/>
  </g>
</svg>
