<svg xmlns="http://www.w3.org/2000/svg" width="48" height="48" viewBox="0 0 48 48">
  <g id="Group_39510" data-name="Group 39510" transform="translate(-592 -414)">
    <rect id="Rectangle_24148" data-name="Rectangle 24148" width="48" height="48" rx="8" transform="translate(592 414)" fill="#148796" opacity="0.08"/>
    <path id="Subtraction_253" data-name="Subtraction 253" d="M14872-4489h-14a4.006,4.006,0,0,1-4-4v-14a4,4,0,0,1,4-4h14a4,4,0,0,1,4,4v14A4,4,0,0,1,14872-4489Zm-6.272-9.106a.869.869,0,0,0-.616.255l-2.8,2.8,2.8,2.8a.853.853,0,0,0,.616.254.853.853,0,0,0,.616-.254.865.865,0,0,0,.258-.614.871.871,0,0,0-.258-.622l-.69-.69h7.156a.875.875,0,0,0,.874-.874.873.873,0,0,0-.874-.87h-7.156l.69-.691a.868.868,0,0,0,.258-.622.865.865,0,0,0-.258-.614A.869.869,0,0,0,14865.729-4498.106Zm-7.858-3.494a.88.88,0,0,0-.616.254.861.861,0,0,0-.254.616.861.861,0,0,0,.254.616l2.8,2.8,2.8-2.8a.858.858,0,0,0,.254-.616.858.858,0,0,0-.254-.616.864.864,0,0,0-.615-.254.867.867,0,0,0-.616.254l-.694.69v-7.157a.875.875,0,0,0-.874-.874.873.873,0,0,0-.87.874v7.157l-.69-.69A.884.884,0,0,0,14857.871-4501.6Z" transform="translate(-14248.999 4938.001)" fill="#148796"/>
  </g>
</svg>
