<svg xmlns="http://www.w3.org/2000/svg" width="48" height="48" viewBox="0 0 48 48">
  <g id="Group_39100" data-name="Group 39100" transform="translate(-1136 -651)">
    <rect id="Rectangle_24154" data-name="Rectangle 24154" width="48" height="48" rx="8" transform="translate(1136 651)" fill="#35930a" opacity="0.08"/>
    <path id="a167cd38e4cced2b2e5b66304c6c1501" d="M347.192,339.413a4.769,4.769,0,0,0-1.629-2.821,2.706,2.706,0,0,1-.924-1.6,4.762,4.762,0,0,0-4.69-3.935,2.706,2.706,0,0,1-1.737-.632,4.762,4.762,0,0,0-6.122,0,2.706,2.706,0,0,1-1.737.632,4.762,4.762,0,0,0-4.689,3.935,2.705,2.705,0,0,1-.924,1.6,4.762,4.762,0,0,0-1.063,6.029,2.706,2.706,0,0,1,.321,1.82,4.762,4.762,0,0,0,3.061,5.3,2.706,2.706,0,0,1,1.416,1.188,4.762,4.762,0,0,0,5.752,2.094,2.706,2.706,0,0,1,1.848,0,4.762,4.762,0,0,0,5.752-2.094,2.706,2.706,0,0,1,1.416-1.188,4.762,4.762,0,0,0,3.061-5.3,2.706,2.706,0,0,1,.321-1.82,4.77,4.77,0,0,0,.566-3.208Zm-7.156.406-5.11,5.049a1.248,1.248,0,0,1-1.75,0l-2.4-2.375a1.213,1.213,0,0,1,0-1.73,1.249,1.249,0,0,1,1.751,0l1.528,1.51,4.234-4.184a1.249,1.249,0,0,1,1.751,0,1.213,1.213,0,0,1,0,1.73Z" transform="translate(824.96 333.69)" fill="#35930a"/>
  </g>
</svg>
