<svg xmlns="http://www.w3.org/2000/svg" width="64" height="64" viewBox="0 0 64 64">
  <g id="Group_39051" data-name="Group 39051" transform="translate(-582 -228)">
    <rect id="Rectangle_24146" data-name="Rectangle 24146" width="64" height="64" rx="8" transform="translate(582 228)" fill="#9d00ff" opacity="0.08"/>
    <path id="b8808aff06912fde59ce8eaa51eed46d" d="M30.217,5.775C24.508.059,14.411.9,7.664,7.656S.077,24.518,5.785,30.234a13.086,13.086,0,0,0,8.408,3.741,3.672,3.672,0,0,0,3.614-4.986l-.541-1.442a2.3,2.3,0,0,1,2.677-3.234l2.257.706a8.941,8.941,0,0,0,11.514-6.665A13.889,13.889,0,0,0,30.217,5.775ZM9.429,26a2.857,2.857,0,1,1,2.857-2.857A2.857,2.857,0,0,1,9.429,26Zm2.286-10.286a2.857,2.857,0,1,1,2.857-2.857A2.857,2.857,0,0,1,11.715,15.717ZM22,12.288a2.857,2.857,0,1,1,2.857-2.857A2.857,2.857,0,0,1,22,12.288Zm5.714,8a2.857,2.857,0,1,1,2.857-2.857A2.857,2.857,0,0,1,27.715,20.288Z" transform="translate(596.001 242.016)" fill="#9d00ff"/>
  </g>
</svg>
