<svg xmlns="http://www.w3.org/2000/svg" width="64" height="64" viewBox="0 0 64 64">
  <g id="Group_39053" data-name="Group 39053" transform="translate(-582 -228)">
    <rect id="Rectangle_24146" data-name="Rectangle 24146" width="64" height="64" rx="8" transform="translate(582 228)" fill="#fa0" opacity="0.08"/>
    <path id="facff0c9e456f713dd8e3a5d1978c953" d="M24.8,13.2V10a8,8,0,0,0-16,0v3.2A4.714,4.714,0,0,0,4,18V29.2A4.714,4.714,0,0,0,8.8,34h16a4.714,4.714,0,0,0,4.8-4.8V18A4.714,4.714,0,0,0,24.8,13.2ZM12,10a4.714,4.714,0,0,1,4.8-4.8A4.714,4.714,0,0,1,21.6,10v3.2H12Zm6.4,16a1.512,1.512,0,0,1-1.6,1.6A1.512,1.512,0,0,1,15.2,26V21.2a1.512,1.512,0,0,1,1.6-1.6,1.512,1.512,0,0,1,1.6,1.6Z" transform="translate(597 242)" fill="#ffaa01"/>
  </g>
</svg>
