<svg xmlns="http://www.w3.org/2000/svg" width="64" height="64" viewBox="0 0 64 64">
  <g id="Group_39045" data-name="Group 39045" transform="translate(-582 -228)">
    <rect id="Rectangle_24146" data-name="Rectangle 24146" width="64" height="64" rx="8" transform="translate(582 228)" fill="#0b80fd" opacity="0.08"/>
    <path id="Subtraction_240" data-name="Subtraction 240" d="M4125.6-4381.2h-19.2a1.6,1.6,0,0,1-1.6-1.6V-4394h-3.2a1.6,1.6,0,0,1-1.6-1.6,1.671,1.671,0,0,1,.571-1.229c5.445-4.555,15.341-13.094,15.43-13.171.065.056,9.914,8.561,15.387,13.171a1.558,1.558,0,0,1,.612,1.229,1.6,1.6,0,0,1-1.6,1.6h-3.2v11.2A1.6,1.6,0,0,1,4125.6-4381.2Zm-13.1-6.8a1.5,1.5,0,0,0-1.5,1.5,1.5,1.5,0,0,0,1.5,1.5h7a1.5,1.5,0,0,0,1.5-1.5,1.5,1.5,0,0,0-1.5-1.5Z" transform="translate(-3502 4656)" fill="#0b80fd"/>
  </g>
</svg>
