<svg xmlns="http://www.w3.org/2000/svg" width="64" height="64" viewBox="0 0 64 64">
  <g id="Group_39052" data-name="Group 39052" transform="translate(-582 -228)">
    <rect id="Rectangle_24146" data-name="Rectangle 24146" width="64" height="64" rx="8" transform="translate(582 228)" fill="#9d00ff" opacity="0.08"/>
    <path id="cd21676edca5ac47b42a6371cc14a8a7" d="M16.644,24.548l-4.8,1.35,1.751,6.252a2.546,2.546,0,0,0,3.1,1.751,2.513,2.513,0,0,0,1.751-3.1ZM31.4,18.3a4.347,4.347,0,0,0,2.5-5.1,4.209,4.209,0,0,0-4.752-3.051l-1.9-6.8a1.838,1.838,0,1,0-3.551.95l6.052,21.757A1.857,1.857,0,0,0,32,27.349,1.773,1.773,0,0,0,33.25,25.1ZM14.343,13.244a.48.48,0,0,0-.15.5L16.744,23a.494.494,0,0,0,.35.35l11.6,2.8L22.8,4.841Zm1.5,10c-2.651-9.7-2.651-9.2-2.6-9.753l-4.5,1.25a1.586,1.586,0,0,0-.95.75,1.468,1.468,0,0,0-.2.8,4.152,4.152,0,0,0,1.551,8,3.3,3.3,0,0,0,.7-.05,1.518,1.518,0,0,0,1.35.8.975.975,0,0,0,.4-.05l4.5-1.25A.933.933,0,0,1,15.844,23.247Z" transform="translate(594.353 242.02)" fill="#9d00ff"/>
  </g>
</svg>
