<svg id="siteicon" xmlns="http://www.w3.org/2000/svg" xmlns:xlink="http://www.w3.org/1999/xlink" width="40" height="40" viewBox="0 0 40 40">
  <defs>
    <clipPath id="clip-path">
      <rect id="Rectangle_23883" data-name="Rectangle 23883" width="40" height="40" rx="6" fill="#1592e6" opacity="0.184"/>
    </clipPath>
  </defs>
  <g id="Mask_Group_191" data-name="Mask Group 191" clip-path="url(#clip-path)">
    <g id="Group_38791" data-name="Group 38791">
      <rect id="Rectangle_19021" data-name="Rectangle 19021" width="40" height="40" rx="6" fill="#1592e6"/>
      <g id="Group_23840" data-name="Group 23840" transform="translate(4.86 14.752) rotate(-30)">
        <path id="Subtraction_230" data-name="Subtraction 230" d="M26.386,29.321H1.759c-.028,0-.057,0-.085,0l-.025,0H1.623A1.758,1.758,0,0,1,.006,27.422L2.062,1.62A1.771,1.771,0,0,1,3.817,0H24.33a1.768,1.768,0,0,1,1.753,1.62l2.059,25.8v.019c0,.04,0,.08,0,.118A1.763,1.763,0,0,1,26.386,29.321ZM16.22,20.762v0l2.52,2.52a.591.591,0,0,0,.831,0l1.657-1.657a.585.585,0,0,0,0-.83l-2.519-2.523,1.162-.633a.591.591,0,0,0,.235-.8.6.6,0,0,0-.294-.262l-7.643-3.123a.588.588,0,0,0-.221-.043.582.582,0,0,0-.543.365.567.567,0,0,0,0,.441l3.123,7.643a.583.583,0,0,0,.543.366.578.578,0,0,0,.512-.307l.635-1.16Zm-5.964-4.889a.584.584,0,0,0-.416.17L8.389,17.5a.587.587,0,0,0,.83.829l1.451-1.45a.591.591,0,0,0,0-.833A.578.578,0,0,0,10.256,15.873Zm-2.927-2.09a.587.587,0,0,0,0,1.174H9.382a.587.587,0,0,0,0-1.174Zm8.5-3.54a.575.575,0,0,0-.414.173l-1.454,1.451a.585.585,0,0,0,.417,1,.576.576,0,0,0,.413-.17l1.454-1.454a.581.581,0,0,0,0-.827A.583.583,0,0,0,15.827,10.243Zm-7.023,0a.586.586,0,0,0-.415,1L9.84,12.7a.586.586,0,0,0,.415.17.58.58,0,0,0,.416-.17.589.589,0,0,0,.173-.418.576.576,0,0,0-.173-.412L9.219,10.416A.582.582,0,0,0,8.8,10.243ZM12.257,8.8a.589.589,0,0,0-.588.589v2.053a.586.586,0,1,0,1.172,0V9.385A.587.587,0,0,0,12.257,8.8Zm8.264-6.45a1.759,1.759,0,1,0,1.762,1.76A1.76,1.76,0,0,0,20.521,2.346Zm-12.9,0a1.759,1.759,0,1,0,1.759,1.76A1.762,1.762,0,0,0,7.623,2.346ZM19.151,22.021v0l-2.655-2.656a.592.592,0,0,0-.833,0,.7.7,0,0,0-.1.133l-.417.766-2.125-5.2,5.2,2.124-.768.42a.588.588,0,0,0-.232.795.6.6,0,0,0,.1.133l2.661,2.661-.832.825Z" transform="translate(0 8.208)" fill="#fff" stroke="rgba(0,0,0,0)" stroke-miterlimit="10" stroke-width="1"/>
        <path id="Path_25665" data-name="Path 25665" d="M12.607,7.036V8.209h1.466V7.036A7.036,7.036,0,1,0,0,7.036V8.209H1.466V7.036a5.571,5.571,0,1,1,11.141,0Z" transform="translate(7.035 0)" fill="#fff"/>
      </g>
    </g>
  </g>
</svg>
