<svg id="_587de16683be4734490b0ead51b5ed36" data-name="587de16683be4734490b0ead51b5ed36" xmlns="http://www.w3.org/2000/svg" width="16" height="16" viewBox="0 0 16 16">
  <path id="Path_42551" data-name="Path 42551" d="M0,0H16V16H0Z" fill="none"/>
  <path id="Path_42552" data-name="Path 42552" d="M3,12.639v2.027A.33.33,0,0,0,3.333,15H5.36a.313.313,0,0,0,.233-.1l7.28-7.273-2.5-2.5L3.1,12.4a.327.327,0,0,0-.1.24ZM14.807,5.693a.664.664,0,0,0,0-.94l-1.56-1.56a.664.664,0,0,0-.94,0l-1.22,1.22,2.5,2.5,1.22-1.22Z" transform="translate(-1 -0.999)" fill="#3190f3"/>
</svg>
