<svg xmlns="http://www.w3.org/2000/svg" width="16" height="16" viewBox="0 0 16 16">
  <path id="Union_77" data-name="Union 77" d="M5.5,16a.625.625,0,0,1,0-1.25H7.375V13.5H2.5A2.5,2.5,0,0,1,0,11V2.5A2.5,2.5,0,0,1,2.5,0h11A2.5,2.5,0,0,1,16,2.5V11a2.5,2.5,0,0,1-2.5,2.5h-3a.625.625,0,1,1,0-1.25h3A1.251,1.251,0,0,0,14.75,11V2.5A1.251,1.251,0,0,0,13.5,1.25H2.5A1.251,1.251,0,0,0,1.25,2.5V11A1.251,1.251,0,0,0,2.5,12.25H8a.625.625,0,0,1,.625.626V14.75H10.5a.625.625,0,0,1,0,1.25ZM2.377,9.539a1.105,1.105,0,0,1-.03-1.2,1.126,1.126,0,0,1,1.206-.495.988.988,0,0,1,.136.04L4.866,6.826l.5-.447a1.113,1.113,0,0,1,.322-1.087,1.13,1.13,0,0,1,1.245-.176,1.1,1.1,0,0,1,.607.9.434.434,0,0,1,.007.088q0,.045-.006.09L9,7.1a1.1,1.1,0,0,1,.864-.13l.051-.057L11.169,5.5l.516-.578a1.136,1.136,0,0,1,.209-1.131,1.1,1.1,0,0,1,1.162-.319,1.13,1.13,0,0,1,.765.97.439.439,0,0,1,.006.084,1.124,1.124,0,0,1-.816,1.067,1.1,1.1,0,0,1-.578,0l-.052.059L11.122,7.059l-.52.584a1.156,1.156,0,0,1,.074.332.432.432,0,0,1,0,.059h0a.467.467,0,0,1,0,.078,1.122,1.122,0,0,1-.812.989A1.106,1.106,0,0,1,8.739,8.76a1.175,1.175,0,0,1-.27-.657.955.955,0,0,1,0-.154l-1.455-.9a1.193,1.193,0,0,1-.511.159,1,1,0,0,1-.474-.074q-.586.527-1.173,1.053l-.5.448a1.155,1.155,0,0,1,.042.281.469.469,0,0,1-.008.1,1.1,1.1,0,0,1-1.1,1.009A1.136,1.136,0,0,1,2.377,9.539Zm.926-.5Zm.029-.009Zm-.074,0s0,0-.005-.006h0Zm-.039,0Zm.087-.006.019-.005.029-.017.006-.006.009-.009.015-.026L3.39,8.93s0-.009,0-.014,0,0,0-.007l-.007-.025-.02-.036-.005-.006-.007-.007-.023-.013L3.3,8.815H3.276l-.02.005-.029.016,0,0-.014.013L3.2,8.875,3.19,8.9c0,.011,0,.022,0,.032l0,.016.017.03.006.006.008.007.026.016.022.006Zm-.056,0h0l0,0,0,0ZM3.2,9Zm.182-.037h0Zm.008-.008,0,0v0h0Zm0-.005,0,0v0h0ZM3.184,8.88l0-.006S3.184,8.879,3.184,8.88Zm.174-.04h0l0,0,0,0Zm-.011-.009-.006-.006h0ZM3.335,8.82s0,0,0,0Zm6.251-.665Zm.029-.009Zm-.074,0s0,0,0-.006h0Zm-.039,0Zm.087-.006.018,0,.029-.017.006-.006L9.651,8.1l.016-.027.006-.022s0-.009,0-.013S9.667,8.01,9.663,8l-.01-.018L9.644,7.97l-.011-.013-.028-.016-.023-.006H9.554l-.017,0-.03.017,0,0L9.5,7.966l-.006.011L9.477,8l0,.016c0,.011,0,.022,0,.033l.005.02.016.027L9.5,8.1l.008.008.026.016.021.006Zm-.057,0h0l0,0,0,0Zm-.054-.008Zm.182-.036,0,0h0Zm.008-.009,0,0v0h0Zm.005-.006V8.069h0Zm-.005-.093v0h0Zm-.055-.045h0Zm0,0A.032.032,0,0,0,9.6,7.928l.011.006ZM6.462,6.228Zm.031-.01Zm-.081,0ZM6.454,6.2l.017,0L6.5,6.181l0,0,.006-.006.019-.033.006-.023s0-.007,0-.011l0-.032h0l-.017-.029-.006-.007L6.5,6.027l-.026-.016-.022-.006H6.424L6.4,6.01l-.027.015-.008.008-.008.008-.016.027-.006.021c0,.01,0,.021,0,.031l.006.023.015.026.014.014h0L6.4,6.2l.024.007Zm-.121-.13s0,0,.006-.006v0S6.333,6.073,6.333,6.073Zm.008-.009,0,0v0l0,0Zm.2-.018Zm-.007-.035Zm-.047,0,0,0h0ZM6.48,6,6.472,6s0,0,.005.006Zm6.259-1.357Zm.031-.009Zm-.082-.006-.01-.006,0,0Zm.047-.007.02-.005.027-.016.007-.006.008-.009.015-.026.007-.026s0-.007,0-.01,0-.012,0-.019l0-.016-.012-.02-.011-.014-.01-.009-.028-.015-.017,0H12.7l-.019,0-.03.017-.006.006-.008.008-.016.027-.005.019c0,.011,0,.022,0,.033l.005.019.012.02.008.008.011.013.028.016.022.006Zm.07-.044,0,0v0Zm.01-.011,0,0v0h0Zm.005-.006,0,0v0h0ZM12.611,4.5s0,0,.006-.005v0Zm.009-.01,0,0v0l0,0Zm.2-.011h0l0,0h0Zm-.006,0h0Zm.007-.013-.008,0h0Zm-.008,0h0l-.012,0ZM12.8,4.432Z" fill="#beb8cc"/>
</svg>
