<svg xmlns="http://www.w3.org/2000/svg" width="11.667" height="14" viewBox="0 0 11.667 14">
  <path id="da086273b974cb595139babd4da17772" d="M17.334,8.323l-.245,6.825a2.36,2.36,0,0,1-2.45,2.174H9.983a2.361,2.361,0,0,1-2.45-2.172L7.288,8.323A.586.586,0,0,1,7.88,7.74a.594.594,0,0,1,.633.545l.245,6.827A1.184,1.184,0,0,0,9.983,16.2h4.656a1.184,1.184,0,0,0,1.225-1.086l.245-6.824a.594.594,0,0,1,.633-.545A.586.586,0,0,1,17.334,8.323Zm.81-2.271a.59.59,0,0,1-.613.564H7.091a.566.566,0,1,1,0-1.127h1.9a.761.761,0,0,0,.78-.647A1.783,1.783,0,0,1,11.6,3.322h1.427a1.783,1.783,0,0,1,1.828,1.519.761.761,0,0,0,.78.647h1.9a.59.59,0,0,1,.613.564Zm-7.312-.564H13.79a1.745,1.745,0,0,1-.156-.532.6.6,0,0,0-.609-.507H11.6a.6.6,0,0,0-.609.507,1.745,1.745,0,0,1-.157.532Zm.617,8.541v-4.8a.615.615,0,0,0-1.225,0v4.8a.615.615,0,0,0,1.225,0Zm2.949,0v-4.8a.615.615,0,0,0-1.225,0v4.8a.615.615,0,0,0,1.225,0Z" transform="translate(-6.478 -3.322)" fill="#9393a3"/>
</svg>
