<svg xmlns="http://www.w3.org/2000/svg" width="40" height="40" viewBox="0 0 40 40">
  <g id="fff234442722ba2c236d8f94dd8beb02" transform="translate(-13.921 0.016)">
    <path id="Path_45197" data-name="Path 45197" d="M35.553,1.28l1.5-.858A3.285,3.285,0,0,1,41.6,1.767l.8,1.543a3.3,3.3,0,0,0,2.732,1.773l1.726.1a3.29,3.29,0,0,1,2.313,1.15,3.347,3.347,0,0,1,.787,2.477l-.148,1.737a3.34,3.34,0,0,0,1.35,2.982l1.4,1.023a3.347,3.347,0,0,1,.675,4.726l-1.055,1.378a3.352,3.352,0,0,0-.463,3.244l.627,1.612a3.355,3.355,0,0,1-.072,2.591,3.311,3.311,0,0,1-1.893,1.753l-1.626.584a3.32,3.32,0,0,0-2.129,2.478l-.34,1.708a3.329,3.329,0,0,1-1.454,2.146,3.276,3.276,0,0,1-2.541.437l-1.682-.4a3.281,3.281,0,0,0-3.12.923l-1.2,1.249a3.28,3.28,0,0,1-4.734,0l-1.2-1.249a3.281,3.281,0,0,0-3.12-.923l-1.682.4a3.276,3.276,0,0,1-2.541-.437,3.329,3.329,0,0,1-1.454-2.146l-.34-1.708a3.32,3.32,0,0,0-2.129-2.478l-1.626-.584A3.311,3.311,0,0,1,15.571,28.1a3.355,3.355,0,0,1-.072-2.591l.627-1.612a3.352,3.352,0,0,0-.463-3.244l-1.055-1.378a3.347,3.347,0,0,1,.675-4.726l1.4-1.023a3.34,3.34,0,0,0,1.35-2.982l-.148-1.737A3.347,3.347,0,0,1,18.67,6.33a3.29,3.29,0,0,1,2.313-1.15l1.726-.1a3.3,3.3,0,0,0,2.732-1.773l.8-1.543A3.286,3.286,0,0,1,30.8.422l1.5.858a3.275,3.275,0,0,0,3.252,0Z" fill="#feb104"/>
    <path id="Path_45198" data-name="Path 45198" d="M51.313,25.573A11.517,11.517,0,1,1,39.895,37.09,11.467,11.467,0,0,1,51.313,25.573m0-4.483a16,16,0,1,0,15.863,16A15.932,15.932,0,0,0,51.313,21.09Z" transform="translate(-17.386 -17.097)" fill="#ff7602"/>
    <ellipse id="Ellipse_1141" data-name="Ellipse 1141" cx="13.167" cy="13.28" rx="13.167" ry="13.28" transform="translate(20.76 6.712)" fill="#fff"/>
  </g>
</svg>
