<svg xmlns="http://www.w3.org/2000/svg" width="12" height="12" viewBox="0 0 12 12">
  <g id="Group_39012" data-name="Group 39012" transform="translate(-1068 -985)">
    <path id="_48116925ae3a82eb626852f6dfabe743" data-name="48116925ae3a82eb626852f6dfabe743" d="M54,48a6,6,0,1,0,6,6A6,6,0,0,0,54,48Z" transform="translate(1020 937)" fill="#ababbc"/>
    <path id="Path_44959" data-name="Path 44959" d="M3.462-4.508a1.137,1.137,0,0,1-.91.437A1.231,1.231,0,0,1,1.7-4.35a.935.935,0,0,1-.309-.728q0-.158.194-1.323l.4-2.172h-.51L1.5-8.792h.522a8.625,8.625,0,0,0,1.323-.073l.17-.036L2.673-4.314a.864.864,0,0,0,.607-.34ZM2.394-10.066a.843.843,0,0,1-.255-.619.863.863,0,0,1,.255-.625.833.833,0,0,1,.619-.261.853.853,0,0,1,.625.261.853.853,0,0,1,.261.625.833.833,0,0,1-.261.619.863.863,0,0,1-.625.255A.843.843,0,0,1,2.394-10.066Z" transform="translate(1071.113 998.821)" fill="#fff"/>
  </g>
</svg>
