<svg xmlns="http://www.w3.org/2000/svg" width="64" height="64" viewBox="0 0 64 64">
  <g id="Group_39088" data-name="Group 39088" transform="translate(-582 -228)">
    <rect id="Rectangle_24146" data-name="Rectangle 24146" width="64" height="64" rx="8" transform="translate(582 228)" fill="#ff7f29" opacity="0.08"/>
    <path id="_61eae1802f1a6580d25f97a5c6fb470c" data-name="61eae1802f1a6580d25f97a5c6fb470c" d="M10.131,10.25a.979.979,0,0,0-.226.628.96.96,0,0,0,.042.284l0-.007a.814.814,0,0,0,.619.652h.006a13.656,13.656,0,0,0,1.418.072c.183,0,.364,0,.544-.01h1.537a1.963,1.963,0,0,0,.45-.129l-.013,0a1.012,1.012,0,0,0,.433-.83c0-.016,0-.033,0-.049v0c0-.012,0-.027,0-.041a.845.845,0,0,0-.5-.769l-.006,0a.76.76,0,0,0-.42-.125H12.442q-1.436,0-1.749.03a.912.912,0,0,0-.56.28Zm3.874,5.867q-2.5,0-3.03.063a1.453,1.453,0,0,0-.724.222l.006,0a.955.955,0,0,0-.277.4l0,.007a.941.941,0,0,0-.069.354.963.963,0,0,0,.007.117v0a.984.984,0,0,0,.189.44l0,0a.861.861,0,0,0,.4.31l.006,0c.753.07,1.63.11,2.515.11q.519,0,1.033-.019h-.05l3-.063.56-.063a.959.959,0,0,0,.5-.743v0a.9.9,0,0,0,.012-.142.853.853,0,0,0-.323-.669h0a1.324,1.324,0,0,0-.718-.218h0q-.466-.03-3.03-.03ZM27.936,24.3Q28,23.739,28,13.62V5.5q-.063-1.687-.125-2.249a1.93,1.93,0,0,0-.255-.7l0,.008-.063-.249A4.2,4.2,0,0,0,24.588.071l-.026,0Q24.189.005,13.911.005T3.323.068A4.548,4.548,0,0,0,1.291,1.189h0A4.19,4.19,0,0,0,.141,3.16l-.006.029A6.637,6.637,0,0,0,0,4.542c0,.139,0,.275.013.412V23.117A17.236,17.236,0,0,0,.145,24.95l-.009-.085a4.1,4.1,0,0,0,.6,1.354L.729,26.2a3.9,3.9,0,0,0,1.047,1.018l.015.009a4.408,4.408,0,0,0,1.375.618l.031.007a17.165,17.165,0,0,0,1.8.121H23a17.235,17.235,0,0,0,1.834-.134l-.085.009a4.19,4.19,0,0,0,2.184-1.271l0,0a3.845,3.845,0,0,0,1-2.259V24.3ZM22.627,12.681q.063.373.03,2.905c0,.145.006.316.006.487a19.377,19.377,0,0,1-.173,2.578l.01-.1a5.26,5.26,0,0,1-1.375,2.437,5.187,5.187,0,0,1-3.1,1.622l-.027,0q-.56.063-4.248.03t-4.124-.093A5.252,5.252,0,0,1,7.16,21.3l0,0a5.186,5.186,0,0,1-1.582-2.34l-.01-.036a5.1,5.1,0,0,1-.218-1.434v0q-.03-.874-.03-3.873.063-3.623.125-4A6.121,6.121,0,0,1,6.673,7.236l-.008.009A5.181,5.181,0,0,1,8.785,5.757l.036-.012a4.22,4.22,0,0,1,1.421-.372h.016Q11,5.31,13.006,5.31q2.124.063,2.437.125A6.679,6.679,0,0,1,18.005,7h0a5.037,5.037,0,0,1,1.562,3.556v0c0,.033,0,.07,0,.108a1.969,1.969,0,0,0,.1.624l0-.014a.844.844,0,0,0,.339.371l0,0a.856.856,0,0,0,.435.156h0l.746.063a4.33,4.33,0,0,1,.963.132l-.029-.007a.98.98,0,0,1,.506.682v.006Z" transform="translate(600.001 245.996)" fill="#ff7f29"/>
  </g>
</svg>
