<svg xmlns="http://www.w3.org/2000/svg" width="64" height="64" viewBox="0 0 64 64">
  <g id="Group_39530" data-name="Group 39530" transform="translate(-582 -228)">
    <rect id="Rectangle_24146" data-name="Rectangle 24146" width="64" height="64" rx="8" transform="translate(582 228)" fill="#0b80fd" opacity="0.08"/>
    <path id="_84971ca60581a7fa8a75fe2e1d701bdb" data-name="84971ca60581a7fa8a75fe2e1d701bdb" d="M24.111,20.037c0,1.4.4,1.961,1.442,1.961,2.325,0,3.8-2.962,3.8-7.888,0-7.529-5.487-11.134-12.337-11.134C9.973,2.976,3.564,7.7,3.564,16.633c0,8.531,5.607,13.176,14.218,13.176a22.052,22.052,0,0,0,7.888-1.322l.644,2.682a28.556,28.556,0,0,1-8.572,1.242C6.447,32.411.4,26.2.4,16.631.4,6.979,7.408.411,17.06.411c10.053,0,15.378,6.008,15.378,13.377,0,6.248-1.961,11.014-8.128,11.014-2.805,0-4.646-1.121-4.886-3.606C18.7,23.959,16.78,24.8,14.175,24.8c-3.484,0-6.408-2.685-6.408-8.09,0-5.447,2.565-8.811,7.171-8.811,2.443,0,3.965.961,4.642,2.483l1.163-2.123h3.364V20.037h0Zm-4.924-5.287a2.947,2.947,0,0,0-3.005-3.124c-1.482,0-3.122,1.2-3.122,4.726,0,2.8,1.242,4.365,3.122,4.365a2.932,2.932,0,0,0,3.005-3.164Z" transform="translate(597.601 243.589)" fill="#0b80fd"/>
  </g>
</svg>
