<svg xmlns="http://www.w3.org/2000/svg" width="64" height="64" viewBox="0 0 64 64">
  <g id="Group_39089" data-name="Group 39089" transform="translate(-582 -228)">
    <rect id="Rectangle_24146" data-name="Rectangle 24146" width="64" height="64" rx="8" transform="translate(582 228)" fill="#18b6c3" opacity="0.08"/>
    <path id="a963ed0f8843a4f8c5415b2e9e2107da" d="M25.636,14.259a.842.842,0,0,0-.842-.842H3.842A.842.842,0,0,0,3,14.259V26.386a3.84,3.84,0,0,0,3.84,3.857H27.2a5.541,5.541,0,0,1-1.566-3.84ZM5.156,17.628A.842.842,0,0,1,6,16.786h7.949a.842.842,0,0,1,.842.842v6.737a.842.842,0,0,1-.842.842H6a.842.842,0,0,1-.842-.842ZM22.368,28.558H6a.842.842,0,1,1,0-1.684H22.368a.842.842,0,0,1,0,1.684Zm0-3.368H17.316a.842.842,0,1,1,0-1.684h5.053a.842.842,0,0,1,0,1.684Zm0-3.368H17.316a.842.842,0,1,1,0-1.684h5.053a.842.842,0,0,1,0,1.684Zm0-3.368H17.316a.842.842,0,1,1,0-1.684h5.053a.842.842,0,0,1,0,1.684Zm-9.263,5.053H6.84V18.453h6.265ZM35,5.872l-.135,20.514a3.84,3.84,0,1,1-7.663,0l.118-13.861a.842.842,0,0,0-.842-.842H12.364V5.872a.842.842,0,0,1,.842-.842H34.158A.842.842,0,0,1,35,5.872Z" transform="translate(595 242.245)" fill="#18b6c3"/>
  </g>
</svg>
