<svg xmlns="http://www.w3.org/2000/svg" width="64" height="64" viewBox="0 0 64 64">
  <g id="Group_39534" data-name="Group 39534" transform="translate(-582 -228)">
    <rect id="Rectangle_24146" data-name="Rectangle 24146" width="64" height="64" rx="8" transform="translate(582 228)" fill="#4cc600" opacity="0.08"/>
    <path id="Subtraction_258" data-name="Subtraction 258" d="M15681.225-12631h-16.048a3.18,3.18,0,0,1-3.177-3.177v-25.648a3.18,3.18,0,0,1,3.177-3.177h5.625v1.6a2.4,2.4,0,0,0,2.4,2.4,2.4,2.4,0,0,0,2.4-2.4v-1.6h5.621a3.182,3.182,0,0,1,3.181,3.177v25.648a3.137,3.137,0,0,1-.929,2.248A3.2,3.2,0,0,1,15681.225-12631Zm-10.423-12.8a4,4,0,0,0-4,4v.6a1,1,0,0,0,1,1h10.8a1,1,0,0,0,1-1v-.6a4,4,0,0,0-4-4Zm2.4-9.6a4.006,4.006,0,0,0-4,4,4.006,4.006,0,0,0,4,4,4,4,0,0,0,4-4A4,4,0,0,0,15673.2-12653.4Zm0-7.2a.8.8,0,0,1-.8-.8v-1.6h1.6v1.6A.8.8,0,0,1,15673.2-12660.6Z" transform="translate(-15059 12906.996)" fill="#4cc600"/>
  </g>
</svg>
