<svg xmlns="http://www.w3.org/2000/svg" width="21.796" height="24" viewBox="0 0 21.796 24">
  <path id="cd21676edca5ac47b42a6371cc14a8a7" d="M13.728,18.906l-3.6,1.013,1.313,4.689a1.909,1.909,0,0,0,2.326,1.313,1.884,1.884,0,0,0,1.313-2.326Zm11.066-4.689A3.26,3.26,0,0,0,26.67,10.39,3.157,3.157,0,0,0,23.106,8.1L21.681,3a1.379,1.379,0,1,0-2.663.713l4.539,16.318a1.393,1.393,0,0,0,1.688.975,1.33,1.33,0,0,0,.938-1.688ZM12,10.428a.36.36,0,0,0-.113.375l1.913,6.94a.371.371,0,0,0,.263.263l8.7,2.1L18.342,4.126Zm1.125,7.5c-1.988-7.277-1.988-6.9-1.951-7.315L7.8,11.553a1.189,1.189,0,0,0-.713.563,1.1,1.1,0,0,0-.15.6,3.114,3.114,0,0,0,1.163,6,2.477,2.477,0,0,0,.525-.038,1.138,1.138,0,0,0,1.013.6.731.731,0,0,0,.3-.038l3.376-.938A.7.7,0,0,1,13.128,17.93Z" transform="translate(-4.981 -1.98)" fill="#0b80fd"/>
</svg>
