<svg xmlns="http://www.w3.org/2000/svg" width="24" height="22.768" viewBox="0 0 24 22.768">
  <g id="_5dc2e011455b152e1681d3ebb50cd415" data-name="5dc2e011455b152e1681d3ebb50cd415" transform="translate(-3.002 -3.982)">
    <path id="Subtraction_234" data-name="Subtraction 234" d="M21.847,8.885H.74L15.959.1a.735.735,0,0,1,1,.27l1.1,1.911a2.759,2.759,0,1,0,2.759,4.778l.92,1.592a1.111,1.111,0,0,1,.1.235Z" transform="translate(5.106 3.982)" fill="#fa07b9"/>
    <path id="Subtraction_233" data-name="Subtraction 233" d="M7.86,12.832h0l-6.618,0A1.242,1.242,0,0,1,0,11.588V9.519a3.106,3.106,0,0,0,3.1-3.1A3.107,3.107,0,0,0,0,3.311V.828A.828.828,0,0,1,.826,0H7.862V1.244a.413.413,0,0,0,.826,0V0L23.172,0A.83.83,0,0,1,24,.828V3.311a3.1,3.1,0,0,0,0,6.208v2.069a1.243,1.243,0,0,1-1.242,1.241H8.688V11.588a.413.413,0,1,0-.826,0v1.241l0,0Zm9.932-4.968a1.241,1.241,0,1,0,1.241,1.241A1.243,1.243,0,0,0,17.792,7.864Zm0-4.552a.822.822,0,0,0-.584.242l-5,4.933a.874.874,0,0,0,0,1.239.853.853,0,0,0,.611.253h.01a.86.86,0,0,0,.616-.258l4.936-5a.816.816,0,0,0,.242-.581.833.833,0,0,0-.242-.587A.824.824,0,0,0,17.792,3.313ZM8.275,7.036a.414.414,0,0,0-.413.413V9.519a.413.413,0,0,0,.826,0V7.449A.414.414,0,0,0,8.275,7.036Zm0-4.139a.413.413,0,0,0-.413.413V5.38a.413.413,0,1,0,.826,0V3.311A.413.413,0,0,0,8.275,2.9Zm4.552,0a1.241,1.241,0,1,0,1.241,1.241A1.242,1.242,0,0,0,12.827,2.9Z" transform="translate(3.002 13.918)" fill="#fa07b9"/>
  </g>
</svg>
