<svg xmlns="http://www.w3.org/2000/svg" width="24" height="16.577" viewBox="0 0 24 16.577">
  <path id="_9c66c130aebf5d6051248c094e67b153" data-name="9c66c130aebf5d6051248c094e67b153" d="M5.594,12.66h5.211c0,.55,0,3.879,0,4.5a2.909,2.909,0,0,0-1.881-.793l-1.461-.064a.43.43,0,0,0-.446.411l-.064,1.466a2.91,2.91,0,0,0,.964,2.284c-.612,0-3.363,0-3.917,0V14.254A1.6,1.6,0,0,1,5.594,12.66Zm21.754.313a1.557,1.557,0,0,0-.943-.313H11.663c0,.53,0,3.9,0,4.509a2.913,2.913,0,0,1,1.881-.8l1.466-.064a.429.429,0,0,1,.446.411l.06,1.466a2.91,2.91,0,0,1-.964,2.284H28V14.254a1.571,1.571,0,0,0-.651-1.281ZM8.513,24.806a.431.431,0,0,1-.364-.656L9.91,21.326H4v6.317a1.6,1.6,0,0,0,1.594,1.594h5.211V21.51L8.877,24.6A.434.434,0,0,1,8.513,24.806Zm.377-7.577-1.033-.047L7.81,18.219a2.064,2.064,0,0,0,1.976,2.147l1.02.043V18.8A2.053,2.053,0,0,0,8.89,17.229Zm5.769.99-.043-1.037-1.037.047a2.055,2.055,0,0,0-1.916,1.581v1.6l1.016-.043a2.065,2.065,0,0,0,1.98-2.147Zm12.484,3.107H28v6.317a1.6,1.6,0,0,1-1.594,1.594H11.663c0-.1-.005-7.313,0-7.727L13.591,24.6a.429.429,0,1,0,.729-.454l-1.762-2.824ZM19.4,24.047h5.443a.429.429,0,1,0,0-.857H19.4a.429.429,0,1,0,0,.857Zm0,2.726h5.443a.429.429,0,1,0,0-.857H19.4a.429.429,0,1,0,0,.857Z" transform="translate(-4 -12.66)" fill="#2d9100"/>
</svg>
