<svg xmlns="http://www.w3.org/2000/svg" width="24" height="24" viewBox="0 0 24 24">
  <g id="_0824519a2edeaa3b4a8f72bfb5c945af" data-name="0824519a2edeaa3b4a8f72bfb5c945af" transform="translate(-3 -3)">
    <path id="Path_45225" data-name="Path 45225" d="M5.187,19.36v6.427A1.227,1.227,0,0,0,6.413,27h7.493V19.36ZM16.093,27h7.493a1.227,1.227,0,0,0,1.227-1.213V19.36h-8.72ZM25.8,8.453H23.347a3.76,3.76,0,0,0,.387-1.64A3.827,3.827,0,0,0,19.907,3,5.613,5.613,0,0,0,15,6.427,5.613,5.613,0,0,0,10.093,3,3.827,3.827,0,0,0,6.267,6.813a3.76,3.76,0,0,0,.387,1.64H4.2C3.533,8.453,3,9.24,3,10.2v5.24c0,.96.533,1.747,1.2,1.747h9.707V8.453h2.187v8.733H25.8c.667,0,1.2-.787,1.2-1.747V10.2c0-.96-.533-1.747-1.2-1.747Zm-15.707,0a1.64,1.64,0,1,1,0-3.267c1.867,0,2.92,1.92,3.44,3.267Zm9.813,0h-3.44c.52-1.333,1.573-3.267,3.44-3.267a1.64,1.64,0,1,1,0,3.267Z" transform="translate(0 0)" fill="#ffba00"/>
  </g>
</svg>
