<svg xmlns="http://www.w3.org/2000/svg" width="26.255" height="24" viewBox="0 0 26.255 24">
  <g id="Group_38880" data-name="Group 38880" transform="translate(-996 -1334.004)">
    <path id="_5a0f7fd4b8242cf57721f789eec9e602" data-name="5a0f7fd4b8242cf57721f789eec9e602" d="M69.5,106h-18v9.751A2.251,2.251,0,0,0,53.75,118h13.5a2.251,2.251,0,0,0,2.25-2.25Zm-11.251,3h4.5a.75.75,0,0,0,0-1.5h-4.5a.75.75,0,0,0,0,1.5ZM51.5,104.5h18A1.5,1.5,0,0,0,71,103v-1.5a1.5,1.5,0,0,0-1.5-1.5h-18a1.5,1.5,0,0,0-1.5,1.5V103A1.5,1.5,0,0,0,51.5,104.5Z" transform="translate(946 1240.002)" fill="#0014ff" fill-rule="evenodd"/>
    <path id="Subtraction_236" data-name="Subtraction 236" d="M17.257,18h-1.5V10.5a1.505,1.505,0,0,0,1.5-1.5V7.5a1.5,1.5,0,0,0-1.5-1.5H19.5V15.75A2.249,2.249,0,0,1,17.257,18ZM19.5,4.5H1.5A1.505,1.505,0,0,1,0,3V1.5A1.5,1.5,0,0,1,1.5,0h18a1.5,1.5,0,0,1,1.5,1.5V3A1.5,1.5,0,0,1,19.5,4.5Z" transform="translate(1001.249 1334.004)" fill="#0014ff"/>
  </g>
</svg>
