<svg xmlns="http://www.w3.org/2000/svg" width="23.996" height="24.004" viewBox="0 0 23.996 24.004">
  <path id="Subtraction_239" data-name="Subtraction 239" d="M17847.008,23845H17847c-.561-.006-1.092-.529-1.561-.992l-.008-.008a3.559,3.559,0,0,0-1.3-.945,1.351,1.351,0,0,0-.3-.035,4.281,4.281,0,0,0-1.139.24l-.016,0-.037.014-.084.023a3.983,3.983,0,0,1-1.047.215.924.924,0,0,1-.5-.125,2.811,2.811,0,0,1-.855-1.631h0l0,0,0-.012-.014-.049a3.51,3.51,0,0,0-.646-1.424,2.858,2.858,0,0,0-1.363-.543l-.008,0c-.621-.145-1.264-.293-1.5-.723a2.736,2.736,0,0,1,.074-1.852l0-.01v-.012l0-.016a3.557,3.557,0,0,0,.164-1.582,2.971,2.971,0,0,0-.9-1.141l-.008,0-.027-.025c-.453-.43-.924-.873-.918-1.361.012-.551.512-1.07,1-1.572a3.539,3.539,0,0,0,.947-1.3,2.939,2.939,0,0,0-.207-1.451l-.01-.031,0-.006c-.182-.6-.369-1.225-.115-1.641a2.75,2.75,0,0,1,1.645-.857l.006,0,.006-.008a3.518,3.518,0,0,0,1.461-.652,2.942,2.942,0,0,0,.551-1.369l0-.006,0-.008c.146-.617.295-1.252.719-1.488a1.21,1.21,0,0,1,.615-.145,5.482,5.482,0,0,1,1.186.2l.008,0,.033.008.012.006.025.008.033.008a5.445,5.445,0,0,0,1.182.2,1.629,1.629,0,0,0,.371-.043,2.826,2.826,0,0,0,1.113-.871l.012-.012.029-.033,0,0c.408-.441.873-.941,1.367-.941l.012.006c.535.006,1.045.49,1.537.961l.031.027v.012a3.546,3.546,0,0,0,1.3.945,1.182,1.182,0,0,0,.293.031,4.223,4.223,0,0,0,1.119-.229l.006-.006.035-.012.023-.006.018-.006a4.277,4.277,0,0,1,1.127-.234.966.966,0,0,1,.508.127,2.736,2.736,0,0,1,.861,1.646l0,.016a3.53,3.53,0,0,0,.648,1.455,2.954,2.954,0,0,0,1.371.543l.006,0c.617.143,1.256.289,1.5.725a2.766,2.766,0,0,1-.078,1.865l-.008.031a3.664,3.664,0,0,0-.16,1.568,3.071,3.071,0,0,0,.91,1.148l.006.006c.465.436.947.885.939,1.383,0,.533-.488,1.037-.955,1.525l-.031.035-.008.006a3.6,3.6,0,0,0-.951,1.311,2.93,2.93,0,0,0,.207,1.432l0,.012v.012c.18.578.387,1.232.125,1.664a2.737,2.737,0,0,1-1.639.861,3.527,3.527,0,0,0-1.486.658,2.916,2.916,0,0,0-.537,1.361c-.143.627-.291,1.27-.725,1.512a1.191,1.191,0,0,1-.611.137,5.4,5.4,0,0,1-1.205-.2l-.027,0-.012,0a4.978,4.978,0,0,0-1.227-.215,1.53,1.53,0,0,0-.383.041,3.052,3.052,0,0,0-1.154.91l0,0C17847.967,23844.5,17847.5,23845,17847.008,23845Zm-.012-19.982a7.983,7.983,0,1,0,7.982,7.984A7.99,7.99,0,0,0,17847,23825.02Zm0,14.578a6.592,6.592,0,1,1,6.594-6.594A6.6,6.6,0,0,1,17847,23839.6Zm-3.316-7.277a.686.686,0,0,0,.006,1.371h2.717v2.621a.683.683,0,1,0,1.365,0v-2.621h2.549a.686.686,0,1,0-.006-1.371h-2.543v-2.639a.686.686,0,0,0-1.371,0v2.639Z" transform="translate(-17834.998 -23820.998)" fill="#e62e4c"/>
</svg>
