<svg xmlns="http://www.w3.org/2000/svg" width="64" height="64" viewBox="0 0 64 64">
  <g id="Group_39530" data-name="Group 39530" transform="translate(-582 -228)">
    <rect id="Rectangle_24146" data-name="Rectangle 24146" width="64" height="64" rx="8" transform="translate(582 228)" fill="#f0546a" opacity="0.08"/>
    <g id="Group_39912" data-name="Group 39912" transform="translate(583 248)">
      <g id="meta-icon" transform="translate(15 -2)" opacity="0.3">
        <path id="Path_54461" data-name="Path 54461" d="M2.6,10.555a4.01,4.01,0,0,0,.466,2.053,1.592,1.592,0,0,0,1.388.795c.679,0,1.3-.168,2.5-1.823C7.91,10.254,9.039,8.4,9.8,7.224l1.287-1.977A19.238,19.238,0,0,1,14.2,1.31,4.727,4.727,0,0,1,17.264,0,5.821,5.821,0,0,1,22,2.941a13.455,13.455,0,0,1,2.094,7.478,7.307,7.307,0,0,1-.865,3.759A3.616,3.616,0,0,1,19.948,16V13.4c1.477,0,1.843-1.357,1.843-2.91a12.3,12.3,0,0,0-1.653-6.424,3.752,3.752,0,0,0-3-2.005c-1.244,0-2.245.938-3.37,2.611-.6.889-1.212,1.972-1.9,3.194l-.759,1.34a33.917,33.917,0,0,1-2.673,4.335C7.1,15.33,5.958,16,4.456,16a3.891,3.891,0,0,1-3.6-1.934A6.969,6.969,0,0,1,0,10.459Z" transform="translate(0)" fill="#f0546a"/>
        <path id="Path_54462" data-name="Path 54462" d="M24.49,3.125A6.056,6.056,0,0,1,29.379,0a5.255,5.255,0,0,1,3.467,1.308,21.722,21.722,0,0,1,4.409,5.68l.619,1.032a43.264,43.264,0,0,0,2.842,4.374c.64.776,1.089,1.005,1.67,1.005,1.477,0,1.843-1.357,1.843-2.91l2.3-.072a7.307,7.307,0,0,1-.865,3.759A3.6,3.6,0,0,1,42.387,16a4.078,4.078,0,0,1-3.073-1.224,17.057,17.057,0,0,1-2.478-3.326l-2.16-3.609a24.556,24.556,0,0,0-2.654-3.77,3.644,3.644,0,0,0-2.685-1.455,3.355,3.355,0,0,0-2.631,1.825Z" transform="translate(-22.438)" fill="#f0546a"/>
        <path id="Path_54463" data-name="Path 54463" d="M6.9,2.616A3.355,3.355,0,0,0,4.267,4.441,11.6,11.6,0,0,0,2.6,10.555a4.01,4.01,0,0,0,.466,2.053L.849,14.066A7.01,7.01,0,0,1,0,10.459,13.783,13.783,0,0,1,2.052,3.125,6.056,6.056,0,0,1,6.94,0Z" transform="translate(0)" fill="#f0546a"/>
      </g>
      <g id="facebook-pixel-icon" transform="translate(27.028 7)" style="isolation: isolate">
        <g id="type" transform="translate(0)">
          <path id="_Compound_Path_" data-name="&lt;Compound Path&gt;" d="M186.532,223.645l.984-1.943a.635.635,0,0,0-.229-.787l-2.108-1.27a7.277,7.277,0,0,0,.152-2l2.28-.927a.635.635,0,0,0,.343-.743l-.68-2.07a.635.635,0,0,0-.718-.4l-2.388.6a7.273,7.273,0,0,0-1.308-1.524l.953-2.267a.635.635,0,0,0-.286-.768l-1.943-.984a.635.635,0,0,0-.787.229l-1.27,2.108a7.34,7.34,0,0,0-2-.152l-.927-2.28a.635.635,0,0,0-.743-.343l-2.07.68a.635.635,0,0,0-.4.718l.6,2.388a7.268,7.268,0,0,0-1.524,1.308l-2.267-.953a.635.635,0,0,0-.768.286l-.984,1.943a.635.635,0,0,0,.229.788l2.109,1.27a7.283,7.283,0,0,0-.152,2l-2.274.921a.635.635,0,0,0-.343.743l.68,2.07a.635.635,0,0,0,.718.4l2.388-.6a7.262,7.262,0,0,0,1.308,1.524l-.953,2.267a.635.635,0,0,0,.286.768l1.943.984a.635.635,0,0,0,.787-.229l1.27-2.108a7.323,7.323,0,0,0,2,.152l.927,2.28a.6.6,0,0,0,.743.343l2.07-.68a.635.635,0,0,0,.4-.718l-.61-2.388a7.259,7.259,0,0,0,1.524-1.308l2.286.94A.635.635,0,0,0,186.532,223.645Zm-6.1-4.319a1.054,1.054,0,1,0-.006,0Z" transform="translate(-167.984 -208.094)" fill="#f0546a" style="mix-blend-mode: multiply;isolation: isolate"/>
        </g>
      </g>
      <circle id="Ellipse_1170" data-name="Ellipse 1170" cx="3" cy="3" r="3" transform="translate(34 14)" fill="#fef1f3"/>
    </g>
  </g>
</svg>
