<svg xmlns="http://www.w3.org/2000/svg" width="64" height="64" viewBox="0 0 64 64">
  <g id="Group_39089" data-name="Group 39089" transform="translate(-582 -228)">
    <rect id="Rectangle_24146" data-name="Rectangle 24146" width="64" height="64" rx="8" transform="translate(582 228)" fill="#13d6fa" opacity="0.08"/>
    <g id="Group_39914" data-name="Group 39914" transform="translate(2 -1)">
      <rect id="Rectangle_24856" data-name="Rectangle 24856" width="24" height="24" rx="2" transform="translate(603 246)" fill="#13d6fa" opacity="0.16"/>
      <rect id="Rectangle_24855" data-name="Rectangle 24855" width="24" height="24" rx="2" transform="translate(600 249)" fill="#13d6fa" opacity="0.4"/>
      <rect id="Rectangle_24854" data-name="Rectangle 24854" width="24" height="24" rx="2" transform="translate(597 252)" fill="#13d6fa"/>
      <g id="meta-icon" transform="translate(603 260)">
        <path id="Path_54461" data-name="Path 54461" d="M1.3,5.257A2,2,0,0,0,1.528,6.28a.793.793,0,0,0,.691.4c.338,0,.647-.083,1.243-.908C3.94,5.108,4.5,4.183,4.881,3.6l.641-.985A9.582,9.582,0,0,1,7.073.653,2.355,2.355,0,0,1,8.6,0a2.9,2.9,0,0,1,2.358,1.465A6.7,6.7,0,0,1,12,5.19a3.64,3.64,0,0,1-.431,1.872,1.8,1.8,0,0,1-1.633.908V6.676c.736,0,.918-.676.918-1.45a6.124,6.124,0,0,0-.823-3.2,1.869,1.869,0,0,0-1.5-1c-.62,0-1.118.467-1.679,1.3-.3.443-.6.982-.947,1.591l-.378.668A16.894,16.894,0,0,1,4.2,6.746,2.374,2.374,0,0,1,2.219,7.97,1.938,1.938,0,0,1,.425,7.006,3.471,3.471,0,0,1,0,5.209Z" transform="translate(0)" fill="#fff"/>
        <path id="Path_54462" data-name="Path 54462" d="M24.49,1.556A3.016,3.016,0,0,1,26.925,0a2.618,2.618,0,0,1,1.727.651,10.82,10.82,0,0,1,2.2,2.829l.308.514a21.551,21.551,0,0,0,1.416,2.179c.319.386.542.5.832.5.736,0,.918-.676.918-1.45l1.143-.036a3.64,3.64,0,0,1-.431,1.872A1.793,1.793,0,0,1,33.4,7.97a2.031,2.031,0,0,1-1.531-.61A8.5,8.5,0,0,1,30.64,5.7l-1.076-1.8a12.232,12.232,0,0,0-1.322-1.878A1.815,1.815,0,0,0,26.9,1.3a1.671,1.671,0,0,0-1.311.909Z" transform="translate(-23.468)" fill="#fff"/>
        <path id="Path_54463" data-name="Path 54463" d="M3.436,1.3a1.671,1.671,0,0,0-1.311.909A5.779,5.779,0,0,0,1.3,5.257,2,2,0,0,0,1.528,6.28l-1.1.726A3.492,3.492,0,0,1,0,5.209,6.866,6.866,0,0,1,1.022,1.556,3.016,3.016,0,0,1,3.457,0Z" transform="translate(0)" fill="#fff"/>
      </g>
    </g>
  </g>
</svg>
