<svg xmlns="http://www.w3.org/2000/svg" width="64" height="64" viewBox="0 0 64 64">
  <g id="Group_39090" data-name="Group 39090" transform="translate(-582 -228)">
    <rect id="Rectangle_24146" data-name="Rectangle 24146" width="64" height="64" rx="8" transform="translate(582 228)" fill="#ff8a00" opacity="0.08"/>
    <g id="Layer_2" data-name="Layer 2" transform="translate(597 243)">
      <path id="Path_54470" data-name="Path 54470" d="M21,13.786a5.357,5.357,0,0,1-5.357-5.357V3.221A3.149,3.149,0,0,1,15.889,2H9.214A3.224,3.224,0,0,0,6,5.214V28.786A3.224,3.224,0,0,0,9.214,32h15a3.224,3.224,0,0,0,3.214-3.214V13.593a2.97,2.97,0,0,1-1.071.193ZM15.329,24.814a1.071,1.071,0,1,1-1.515,1.515l-2.143-2.143a1.071,1.071,0,0,1,0-1.515l2.143-2.143a1.071,1.071,0,1,1,1.515,1.515l-1.385,1.385Zm6.429-.628-2.143,2.143A1.071,1.071,0,1,1,18.1,24.814l1.385-1.385L18.1,22.043a1.071,1.071,0,1,1,1.515-1.515l2.143,2.143a1.071,1.071,0,0,1,0,1.515Z" fill="#ff8a00"/>
      <path id="Path_54471" data-name="Path 54471" d="M25.521,8.036,19.368,2.763a3.383,3.383,0,0,0-.9-.546,1.071,1.071,0,0,0-1.469,1V8.419a3.214,3.214,0,0,0,3.214,3.214h5.357a1.071,1.071,0,0,0,1.071-1.071v-.086a3.223,3.223,0,0,0-1.122-2.44Z" transform="translate(0.786 0.01)" fill="#ff8a00"/>
    </g>
  </g>
</svg>
