<svg xmlns="http://www.w3.org/2000/svg" width="64" height="64" viewBox="0 0 64 64">
  <g id="Group_39093" data-name="Group 39093" transform="translate(-582 -228)">
    <rect id="Rectangle_24146" data-name="Rectangle 24146" width="64" height="64" rx="8" transform="translate(582 228)" fill="#6800e2" opacity="0.08"/>
    <g id="ba437d6a1ef708beaae56c890d993f3d" transform="translate(594.755 240.846)">
      <path id="Path_54472" data-name="Path 54472" d="M30,8.342C19.888-1.06,5.643,12.3,14.316,22.982l-.617.64a2.574,2.574,0,0,0-2.975.454L5.993,28.8A2.551,2.551,0,1,0,9.6,32.407l4.716-4.724a2.559,2.559,0,0,0,.439-2.975l.61-.632C26.07,32.719,39.392,18.429,30,8.342ZM28.123,20.058a.744.744,0,0,1-.744.744H17.4a.744.744,0,0,1-.744-.744V11.876a.744.744,0,0,1,.744-.744h9.975a.744.744,0,0,1,.744.744Z" transform="translate(0 0)" fill="#6800e2"/>
      <path id="Path_54473" data-name="Path 54473" d="M22.59,21.892h8.488V18.173H22.59Zm6.479-2.648a.811.811,0,1,1-.733.807A.811.811,0,0,1,29.069,19.244Zm-2.232,0a.811.811,0,1,1-.733.807A.811.811,0,0,1,26.837,19.244Zm-2.232,0a.811.811,0,1,1-.733.807A.811.811,0,0,1,24.606,19.244ZM22.59,15.22h8.488v1.488H22.59Z" transform="translate(-4.443 -2.578)" fill="#6800e2"/>
    </g>
  </g>
</svg>
