<svg xmlns="http://www.w3.org/2000/svg" width="64" height="64" viewBox="0 0 64 64">
  <g id="Group_39917" data-name="Group 39917" transform="translate(-312 -189)">
    <g id="Group_39045" data-name="Group 39045" transform="translate(-270 -39)">
      <rect id="Rectangle_24146" data-name="Rectangle 24146" width="64" height="64" rx="8" transform="translate(582 228)" fill="#e37402" opacity="0.08"/>
    </g>
    <g id="google-analytics-4" transform="translate(330 206)">
      <path id="Path_54455" data-name="Path 54455" d="M1601.139,26.268a3.728,3.728,0,0,1-3.708,3.748,3.568,3.568,0,0,1-.459-.026,3.823,3.823,0,0,1-3.263-3.875V3.923a3.825,3.825,0,0,1,3.269-3.875,3.724,3.724,0,0,1,4.161,3.722Z" transform="translate(-1574.039 -0.022)" fill="#f9ab00"/>
      <path id="Path_54456" data-name="Path 54456" d="M3.716,927.363A3.716,3.716,0,1,1,0,931.079,3.716,3.716,0,0,1,3.716,927.363ZM13.493,916.1a3.824,3.824,0,0,0-3.614,3.907v9.981c0,2.709,1.192,4.353,2.938,4.7a3.721,3.721,0,0,0,4.387-2.909,3.638,3.638,0,0,0,.074-.749v-11.2a3.728,3.728,0,0,0-3.722-3.736Z" transform="translate(0 -904.795)" fill="#e37400"/>
    </g>
  </g>
</svg>
