<svg xmlns="http://www.w3.org/2000/svg" width="64" height="64" viewBox="0 0 64 64">
  <g id="Group_39087" data-name="Group 39087" transform="translate(-582 -228)">
    <rect id="Rectangle_24146" data-name="Rectangle 24146" width="64" height="64" rx="8" transform="translate(582 228)" fill="#256fdb" opacity="0.08"/>
    <g id="google-tag-manager-svgrepo-com" transform="translate(600 246)">
      <path id="Path_54457" data-name="Path 54457" d="M110.686,120.129l-4.86-4.739,10.438-10.659,5.032,4.932Z" transform="translate(-94.251 -93.276)" fill="#8ab4f8"/>
      <path id="Path_54458" data-name="Path 54458" d="M16.455,13.675,11.613,8.731,1.024,19.22a3.5,3.5,0,0,0,0,4.944l10.43,10.5,4.932-4.614L8.439,21.692Z" transform="translate(0 -7.776)" fill="#4285f4"/>
      <path id="Path_54459" data-name="Path 54459" d="M112.478,11.525l-10.5-10.5a3.5,3.5,0,0,0-4.949,4.949l10.5,10.5a3.5,3.5,0,1,0,4.949-4.949Z" transform="translate(-85.503)" fill="#8ab4f8"/>
      <circle id="Ellipse_1163" data-name="Ellipse 1163" cx="3.42" cy="3.42" r="3.42" transform="translate(10.499 21.159)" fill="#246fdb"/>
    </g>
  </g>
</svg>
