<svg xmlns="http://www.w3.org/2000/svg" width="64" height="64" viewBox="0 0 64 64">
  <g id="Group_39531" data-name="Group 39531" transform="translate(-582 -228)">
    <rect id="Rectangle_24146" data-name="Rectangle 24146" width="64" height="64" rx="8" transform="translate(582 228)" fill="#4467b1" opacity="0.08"/>
    <path id="Path_54455" data-name="Path 54455" d="M150.083,175.581l-9.454-5.458a3.084,3.084,0,0,0-2.771,0l-9.454,5.458a3.084,3.084,0,0,0-1.383,2.4V188.9a3.084,3.084,0,0,0,1.383,2.4l1.053.608h0l9.789,5.89,9.793-5.881h0l1.04-.6a3.084,3.084,0,0,0,1.383-2.4V177.978A3.084,3.084,0,0,0,150.083,175.581Zm-16.464,13.745a1.251,1.251,0,0,1-.881-.37l-4.674-4.679a1.26,1.26,0,0,1,0-1.762l4.674-4.7a1.26,1.26,0,1,1,1.762,1.762l-3.8,3.8,3.784,3.784a1.26,1.26,0,0,1-.868,2.168Zm3.621,1.106a1.26,1.26,0,1,1-2.282-1.071l6.423-13.657a1.26,1.26,0,1,1,2.282,1.071Zm13.19-6.168-4.688,4.688a1.26,1.26,0,1,1-1.762-1.762l3.8-3.8-3.806-3.815a1.26,1.26,0,0,1,0-1.762,1.291,1.291,0,0,1,1.762,0l4.679,4.674a1.26,1.26,0,0,1,.018,1.78Z" transform="translate(474.98 76.206)" fill="#4467b1"/>
  </g>
</svg>
