<svg xmlns="http://www.w3.org/2000/svg" width="48" height="48" viewBox="0 0 48 48">
  <g id="Group_39075" data-name="Group 39075" transform="translate(-582 -228)">
    <rect id="Rectangle_24146" data-name="Rectangle 24146" width="48" height="48" rx="8" transform="translate(582 228)" fill="#037935" opacity="0.08"/>
    <path id="_981cee6b88aaca44443fc4695fea22c2" data-name="981cee6b88aaca44443fc4695fea22c2" d="M50.216,27.561l2.708,6.088a1.457,1.457,0,0,0,1.179.857l6.627.694-4.954,4.457a1.457,1.457,0,0,0-.451,1.387l1.388,6.517-5.769-3.334a1.457,1.457,0,0,0-1.458,0l-5.769,3.334,1.388-6.517a1.457,1.457,0,0,0-.451-1.387L39.7,35.2l6.627-.694a1.457,1.457,0,0,0,1.179-.857Z" transform="translate(555.299 214.439)" fill="#037935" fill-rule="evenodd"/>
  </g>
</svg>
