<svg xmlns="http://www.w3.org/2000/svg" width="48" height="48" viewBox="0 0 48 48">
  <g id="Group_39118" data-name="Group 39118" transform="translate(-582 -228)">
    <rect id="Rectangle_24146" data-name="Rectangle 24146" width="48" height="48" rx="8" transform="translate(582 228)" fill="#999" opacity="0.08"/>
    <g id="fe652688c63e5f4fdd3bb0f3222a4d4b" transform="translate(594 240.005)">
      <path id="Subtraction_245" data-name="Subtraction 245" d="M12,24A12,12,0,0,1,3.515,3.515a12,12,0,1,1,16.971,16.97A11.92,11.92,0,0,1,12,24ZM10.118,7.553a4.165,4.165,0,0,0-4.037,4.1,10.624,10.624,0,0,0,1.325,4.773c.716,1.3,1.546,1.994,2.4,1.994a2.963,2.963,0,0,0,.982-.258h0a3.942,3.942,0,0,1,1.393-.335A3.757,3.757,0,0,1,13.4,18.1h0a3.422,3.422,0,0,0,1.1.259,3.26,3.26,0,0,0,2.372-1.32,4.153,4.153,0,0,0,1.041-2.455.682.682,0,0,0-.011-.111.524.524,0,0,1-.009-.082v-.1a3.006,3.006,0,0,1-1.775-2.818,3.033,3.033,0,0,1,1.326-2.567l.038-.02a3.183,3.183,0,0,0-2.5-1.379,2.627,2.627,0,0,0-1.1.345,3.466,3.466,0,0,1-1.534.44,2.041,2.041,0,0,1-1.071-.362A2.217,2.217,0,0,0,10.118,7.553Zm4.7-3.161A3.144,3.144,0,0,0,12.263,7.42a3.235,3.235,0,0,0,.058.555v.077a3.167,3.167,0,0,0,2.555-3.086c0-.119-.015-.265-.033-.433l-.007-.064-.02-.076Z" transform="translate(0 -0.005)" fill="#999"/>
    </g>
  </g>
</svg>
