<svg xmlns="http://www.w3.org/2000/svg" width="48" height="48" viewBox="0 0 48 48">
  <g id="Group_39082" data-name="Group 39082" transform="translate(-582 -228)">
    <rect id="Rectangle_24146" data-name="Rectangle 24146" width="48" height="48" rx="8" transform="translate(582 228)" fill="#5a3a2d" opacity="0.08"/>
    <g id="Group_39085" data-name="Group 39085" transform="translate(-19.535 -76.578)">
      <g id="LWPOLYLINE" transform="translate(619.966 334.607)">
        <path id="Path_25605" data-name="Path 25605" d="M619,335.072h2.4L621.4,331.1H619Z" transform="translate(-618.997 -331.101)" fill="#5a3a2d"/>
      </g>
      <g id="LWPOLYLINE-2" data-name="LWPOLYLINE" transform="translate(628.733 330.588)" opacity="0.5">
        <rect id="Rectangle_16686" data-name="Rectangle 16686" width="2.401" height="7.99" fill="#5a3a2d"/>
      </g>
      <path id="Path_25606" data-name="Path 25606" d="M621.138,321.718a5.6,5.6,0,1,0,5.6,5.6A5.6,5.6,0,0,0,621.138,321.718Zm2.1,4.4h-1.2v-.3a.3.3,0,0,0-.3-.3h-1.2a.3.3,0,0,0-.3.3v.6a.3.3,0,0,0,.3.3h1.2a1.5,1.5,0,0,1,1.5,1.5v.6a1.5,1.5,0,0,1-1.5,1.5h-.32v.9h-.6v-.9h-.28a1.5,1.5,0,0,1-1.5-1.5v-.3h1.2v.3a.3.3,0,0,0,.3.3h1.2a.3.3,0,0,0,.3-.3v-.6a.3.3,0,0,0-.3-.3h-1.2a1.5,1.5,0,0,1-1.5-1.5v-.6a1.5,1.5,0,0,1,1.5-1.5h.28v-.9h.6v.9h.32a1.5,1.5,0,0,1,1.5,1.5Z" transform="translate(0 0.879)" fill="#5a3a2d"/>
      <g id="LWPOLYLINE-3" data-name="LWPOLYLINE" transform="translate(624.778 318.578)" opacity="0.5">
        <path id="Path_25607" data-name="Path 25607" d="M622.756,321.983a7.21,7.21,0,0,1,3.025,3.482v-.081h1.2v.3a.3.3,0,0,0,.3.3h1.2a.3.3,0,0,0,.3-.3v-.6a.3.3,0,0,0-.3-.3h-1.2a1.5,1.5,0,0,1-1.5-1.5v-.6a1.5,1.5,0,0,1,1.5-1.5h.28v-.9h.6v.9h.321a1.5,1.5,0,0,1,1.5,1.5v.3h-1.2v-.3a.3.3,0,0,0-.3-.3h-1.2a.3.3,0,0,0-.3.3v.6a.3.3,0,0,0,.3.3h1.2a1.5,1.5,0,0,1,1.5,1.5v.6a1.5,1.5,0,0,1-1.5,1.5h-.321v.9h-.6v-.9h-.28a1.5,1.5,0,0,1-1.123-.506,7.206,7.206,0,0,1,.041,2.84,5.605,5.605,0,1,0-3.443-7.538Z" transform="translate(-622.756 -318.578)" fill="#5a3a2d"/>
      </g>
    </g>
  </g>
</svg>
