<svg xmlns="http://www.w3.org/2000/svg" width="48" height="48" viewBox="0 0 48 48">
  <g id="Group_39102" data-name="Group 39102" transform="translate(-582 -228)">
    <rect id="Rectangle_24146" data-name="Rectangle 24146" width="48" height="48" rx="8" transform="translate(582 228)" fill="#009ef7" opacity="0.08"/>
    <g id="bf337a9a480b860ea86dc4284d73510c" transform="translate(585.859 236)">
      <path id="Path_45257" data-name="Path 45257" d="M38.969,5H25V27H38.968a2.206,2.206,0,0,0,2.2-2.2V7.2A2.206,2.206,0,0,0,38.969,5ZM34.953,19.8a1.84,1.84,0,0,1-1.595-.88,2.111,2.111,0,0,1-1.7.88,1.965,1.965,0,0,1-1.87-1.705,4.368,4.368,0,0,1-.055-1.21c.055-.55.6-3.575,3.135-3.575a3.021,3.021,0,0,1,2.035.715l-.33,3.74c0,.165-.11.88.6.88,1.155,0,1.32-2.145,1.32-2.53.055-.66.165-4.51-3.85-4.51-3.795,0-4.345,4.07-4.4,5.06-.275,4.675,3.3,4.675,3.96,4.675a6.781,6.781,0,0,0,2.145-.44l.22,1.1a4.872,4.872,0,0,1-2.42.6c-1.21,0-5.555-.22-5.39-5.94.165-1.155.88-6.16,5.94-6.16s5.17,4.455,5.17,5.61C37.814,18.75,36.164,19.9,34.953,19.8Z" transform="translate(-11.228)" fill="#009ef7"/>
      <path id="Path_45258" data-name="Path 45258" d="M21.086,14.57a3.558,3.558,0,0,0-.5.44c-.11.22-.22.44-.33.715a5.819,5.819,0,0,0-.165,1.1,2.825,2.825,0,0,0,.11,1.265.663.663,0,0,0,.66.44.331.331,0,0,0,.22-.055.733.733,0,0,0,.275-.165c.11-.055.165-.165.275-.33a1.276,1.276,0,0,0,.22-.55l.275-2.97a.936.936,0,0,0-.385-.055A1.173,1.173,0,0,0,21.086,14.57ZM12.341,5a2.206,2.206,0,0,0-2.2,2.2V24.8a2.206,2.206,0,0,0,2.2,2.2h.767V5Z" fill="#009ef7"/>
    </g>
  </g>
</svg>
