<svg xmlns="http://www.w3.org/2000/svg" width="48" height="48" viewBox="0 0 48 48">
  <g id="Group_39081" data-name="Group 39081" transform="translate(-582 -228)">
    <rect id="Rectangle_24146" data-name="Rectangle 24146" width="48" height="48" rx="8" transform="translate(582 228)" fill="#9447a2" opacity="0.08"/>
    <g id="abffa569521fba4c344cd80342b42b43" transform="translate(594 240)">
      <rect id="Rectangle_24300" data-name="Rectangle 24300" width="24" height="24" fill="none"/>
      <path id="Path_45247" data-name="Path 45247" d="M13.82,64.1a.749.749,0,0,1-.909.546l-2.826-.706a1.509,1.509,0,0,1-.62-.323L7.35,61.778a.75.75,0,1,1,.984-1.132l2.114,1.838,2.826.706A.75.75,0,0,1,13.82,64.1ZM26.251,55.17a1.489,1.489,0,0,1-.756.88l-2.181,1.091-1.4,1.639L21.9,58.8l-.014.015-.011.011-3.45,3.45a1.509,1.509,0,0,1-1.064.439A1.486,1.486,0,0,1,17,62.667l-5.433-1.358a1.491,1.491,0,0,1-.56-.274L5.939,57.074l-2.25-1.125a1.5,1.5,0,0,1-.659-2.036L5.336,49.5a1.507,1.507,0,0,1,2-.647l2.1,1.049L14,48.569a1.5,1.5,0,0,1,1.038.073l3.093,1.4h1.536l2.183-1.091a1.507,1.507,0,0,1,2,.647l2.306,4.415a1.489,1.489,0,0,1,.1,1.156Zm-6.06,3.213-2.967-2.158-.757.568a3.769,3.769,0,0,1-4.5,0l-.508-.381a1.5,1.5,0,0,1-.161-2.261l3.669-3.669a1.518,1.518,0,0,1,.172-.146l-.722-.327L9.849,51.341,7.3,56.231l4.633,3.623,5.433,1.358Zm1.752-1.947-2.555-4.893h-3.36l-3.669,3.669.508.381a2.262,2.262,0,0,0,2.7,0l1.2-.9a.75.75,0,0,1,.891-.007l3.564,2.592Z" transform="translate(-2.592 -43.962)" fill="#9447a2"/>
    </g>
  </g>
</svg>
