<svg xmlns="http://www.w3.org/2000/svg" width="48" height="48" viewBox="0 0 48 48">
  <g id="Group_39113" data-name="Group 39113" transform="translate(-582 -228)">
    <rect id="Rectangle_24146" data-name="Rectangle 24146" width="48" height="48" rx="8" transform="translate(582 228)" fill="#ff6c00" opacity="0.08"/>
    <g id="_72e9ea52597900fa8b09761f5459d1d4" data-name="72e9ea52597900fa8b09761f5459d1d4" transform="translate(591.998 237.001)">
      <path id="Subtraction_242" data-name="Subtraction 242" d="M21.429,15.43H8.443A1.694,1.694,0,0,1,6.814,14.3a.885.885,0,0,0-.845-.567.772.772,0,0,0-.563.225.854.854,0,0,0-.219.34A1.7,1.7,0,0,1,3.557,15.43H2.572A2.574,2.574,0,0,1,0,12.859V2.571A2.575,2.575,0,0,1,2.572,0h.985A1.7,1.7,0,0,1,5.186,1.125a.856.856,0,0,0,1.626,0A1.693,1.693,0,0,1,8.441,0H21.427A2.575,2.575,0,0,1,24,2.571V12.859A2.574,2.574,0,0,1,21.429,15.43ZM6,8.572a.859.859,0,0,0-.857.858v.857a.857.857,0,1,0,1.713,0V9.43A.859.859,0,0,0,6,8.572Zm11.715.286A1.142,1.142,0,1,0,18.856,10,1.144,1.144,0,0,0,17.714,8.858Zm0-4.286a.855.855,0,0,0-.606.251L12.536,9.394a.857.857,0,0,0,1.212,1.212L18.32,6.035a.858.858,0,0,0,0-1.211A.855.855,0,0,0,17.714,4.572ZM6,4.287a.858.858,0,0,0-.857.857V6A.857.857,0,1,0,6.855,6V5.144A.858.858,0,0,0,6,4.287Zm7.143,0A1.143,1.143,0,1,0,14.284,5.43,1.144,1.144,0,0,0,13.142,4.287Z" transform="translate(2.002 6.999)" fill="#ff6c00"/>
    </g>
  </g>
</svg>
