<svg xmlns="http://www.w3.org/2000/svg" width="48" height="48" viewBox="0 0 48 48">
  <g id="Group_39106" data-name="Group 39106" transform="translate(-582 -228)">
    <rect id="Rectangle_24146" data-name="Rectangle 24146" width="48" height="48" rx="8" transform="translate(582 228)" fill="#0b9d5f" opacity="0.08"/>
    <g id="_0a659199c9168d499819ff89c5c39cc1" data-name="0a659199c9168d499819ff89c5c39cc1" transform="translate(594.29 239.82)">
      <path id="Path_45254" data-name="Path 45254" d="M22.666,9.775q-.746-.722-1.5-1.455-.021-1.015-.053-2.03a3.624,3.624,0,0,0-1.091-2.441A3.622,3.622,0,0,0,17.581,2.76q-1.017-.031-2.033-.052-.733-.746-1.453-1.49a3.261,3.261,0,0,0-4.771,0Q8.6,1.963,7.865,2.711q-1.017.021-2.033.052A3.746,3.746,0,0,0,2.3,6.293q-.031,1.015-.053,2.03-.749.733-1.5,1.455a3.246,3.246,0,0,0,0,4.757q.746.722,1.5,1.453Q2.265,17,2.3,18.019a3.738,3.738,0,0,0,3.537,3.529q1.017.032,2.033.053.733.746,1.456,1.49a3.266,3.266,0,0,0,4.775,0q.723-.745,1.457-1.492,1.017-.021,2.033-.053a3.745,3.745,0,0,0,3.537-3.529q.032-1.014.052-2.029.749-.733,1.5-1.455a3.239,3.239,0,0,0-.007-4.758Zm-5,.862c-2.021,2.1-4.075,4.248-6.094,6.377a1.758,1.758,0,0,1-1.277.551h-.008a1.79,1.79,0,0,1-1.278-.549q-1.62-1.673-3.25-3.333a1.749,1.749,0,0,1,.036-2.5,1.8,1.8,0,0,1,2.528.031q.969.993,1.939,1.991c1.6-1.68,3.214-3.37,4.8-5.034a1.779,1.779,0,0,1,2.518-.037A1.754,1.754,0,0,1,17.666,10.637Z" transform="translate(0 0)" fill="#0b9d5f"/>
    </g>
  </g>
</svg>
