<svg xmlns="http://www.w3.org/2000/svg" width="48" height="48" viewBox="0 0 48 48">
  <g id="Group_39109" data-name="Group 39109" transform="translate(-582 -228)">
    <rect id="Rectangle_24146" data-name="Rectangle 24146" width="48" height="48" rx="8" transform="translate(582 228)" fill="#16670b" opacity="0.08"/>
    <path id="_74220f5c53b43cb14436c2378708afa3" data-name="74220f5c53b43cb14436c2378708afa3" d="M6.96,14.44V7H2.4A2.407,2.407,0,0,0,0,9.4v7.2A2.407,2.407,0,0,0,2.4,19H3.6v3.6L7.2,19h6a2.407,2.407,0,0,0,2.4-2.4V14.416a1.132,1.132,0,0,1-.24.025H6.96ZM21.6,1H10.8A2.407,2.407,0,0,0,8.4,3.4V13h8.4l3.6,3.6V13h1.2A2.406,2.406,0,0,0,24,10.6V3.4A2.407,2.407,0,0,0,21.6,1Z" transform="translate(594 240)" fill="#16670b"/>
  </g>
</svg>
