<svg xmlns="http://www.w3.org/2000/svg" width="48" height="48" viewBox="0 0 48 48">
  <g id="Group_39078" data-name="Group 39078" transform="translate(-582 -228)">
    <rect id="Rectangle_24146" data-name="Rectangle 24146" width="48" height="48" rx="8" transform="translate(582 228)" fill="#ef9f28" opacity="0.08"/>
    <path id="_02eede72bf34fa5425706a6a548157e5" data-name="02eede72bf34fa5425706a6a548157e5" d="M14.66,0C18.06,0,20,1.92,20,5.33h0v9.34C20,18.06,18.07,20,14.67,20H5.33C1.92,20,0,18.06,0,14.67H0V5.33C0,1.92,1.92,0,5.33,0h9.33ZM9.99,5.51a.828.828,0,0,0-.83.83h0V9.16H6.33a.82.82,0,0,0-.83.83.843.843,0,0,0,.83.84H9.16v2.83a.83.83,0,1,0,1.66,0h0V10.83h2.84a.843.843,0,0,0,.83-.84.828.828,0,0,0-.83-.83H10.82V6.34A.828.828,0,0,0,9.99,5.51Z" transform="translate(596 242)" fill="#ef9f28"/>
  </g>
</svg>
