<svg xmlns="http://www.w3.org/2000/svg" width="48" height="48" viewBox="0 0 48 48">
  <g id="Group_39120" data-name="Group 39120" transform="translate(-582 -228)">
    <rect id="Rectangle_24146" data-name="Rectangle 24146" width="48" height="48" rx="8" transform="translate(582 228)" fill="#217979" opacity="0.08"/>
    <path id="Subtraction_243" data-name="Subtraction 243" d="M1829.167-4395.206h-18.333a1.835,1.835,0,0,1-1.833-1.833v-11.781a1.839,1.839,0,0,1,.909-1.583l9.167-5.347a1.832,1.832,0,0,1,.924-.25,1.833,1.833,0,0,1,.924.25l9.167,5.347a1.84,1.84,0,0,1,.91,1.583v11.781A1.835,1.835,0,0,1,1829.167-4395.206Zm-12.2-8.93a1.105,1.105,0,0,0-.779.309,1.1,1.1,0,0,0-.309.779,1.1,1.1,0,0,0,.309.779l2.062,2.109a1.061,1.061,0,0,0,.825.32,1.051,1.051,0,0,0,.871-.458l3.437-3.437a1.105,1.105,0,0,0,.309-.78,1.1,1.1,0,0,0-.309-.779,1.1,1.1,0,0,0-.779-.309,1.1,1.1,0,0,0-.779.309l-2.7,2.7-1.376-1.237A1.106,1.106,0,0,0,1816.964-4404.136Z" transform="translate(-1214 4658)" fill="#217979"/>
  </g>
</svg>
