<svg xmlns="http://www.w3.org/2000/svg" width="48" height="48" viewBox="0 0 48 48">
  <g id="Group_39117" data-name="Group 39117" transform="translate(-582 -228)">
    <rect id="Rectangle_24146" data-name="Rectangle 24146" width="48" height="48" rx="8" transform="translate(582 228)" fill="#1976d2" opacity="0.08"/>
    <g id="_19f95dd6cbe7a9097a9c5697b4514fe6" data-name="19f95dd6cbe7a9097a9c5697b4514fe6" transform="translate(596 242)">
      <path id="Subtraction_244" data-name="Subtraction 244" d="M881-6582h-7.5a2.5,2.5,0,0,1-2.5-2.5v-15a2.5,2.5,0,0,1,2.5-2.5h15a2.5,2.5,0,0,1,2.5,2.5v15a2.5,2.5,0,0,1-2.5,2.5h-3.751v-6.876h1.876l1.249-3.125h-3.125v-2.5c0-.582.406-.628.936-.628h1.564v-3.125h-2.5A3.755,3.755,0,0,0,881-6594.5v2.5h-2.5v3.125H881V-6582Z" transform="translate(-871 6602)" fill="#1976d2"/>
    </g>
  </g>
</svg>
