<svg xmlns="http://www.w3.org/2000/svg" width="48" height="48" viewBox="0 0 48 48">
  <g id="Group_39116" data-name="Group 39116" transform="translate(-582 -228)">
    <rect id="Rectangle_24146" data-name="Rectangle 24146" width="48" height="48" rx="8" transform="translate(582 228)" fill="#ea4336" opacity="0.08"/>
    <path id="b7f2a65638fc9a84dffee97ddc04e9ed" d="M11,9.424H21.381a10.051,10.051,0,0,1,.171,1.83v0c0,.06,0,.132,0,.2a11.553,11.553,0,0,1-1.335,5.409l.03-.063a9.47,9.47,0,0,1-3.67,3.792l-.047.025A10.856,10.856,0,0,1,11.208,22l-.222,0h-.029A10.781,10.781,0,0,1,6.646,21.1l.07.027a10.843,10.843,0,0,1-5.824-5.78l-.027-.071A10.828,10.828,0,0,1,0,11,10.988,10.988,0,0,1,.893,6.645l-.027.071A10.843,10.843,0,0,1,6.645.893L6.715.866A10.63,10.63,0,0,1,10.954,0H11l.182,0a10.388,10.388,0,0,1,7.2,2.884l0,0L15.381,5.759a6.036,6.036,0,0,0-4.214-1.708l-.178,0h-.035A6.542,6.542,0,0,0,7.552,5l.029-.016A7.006,7.006,0,0,0,7.55,17l.031.017a6.5,6.5,0,0,0,3.372.931h.119a7.274,7.274,0,0,0,2.268-.359l-.051.015a5.775,5.775,0,0,0,1.735-.871l-.016.011a6.266,6.266,0,0,0,1.162-1.159l.011-.015a5.428,5.428,0,0,0,.724-1.211l.014-.036a5.06,5.06,0,0,0,.317-1.085l0-.032H11Z" transform="translate(595.001 241.001)" fill="#ea4336"/>
  </g>
</svg>
