<svg xmlns="http://www.w3.org/2000/svg" width="48" height="48" viewBox="0 0 48 48">
  <g id="Group_39063" data-name="Group 39063" transform="translate(-582 -228)">
    <rect id="Rectangle_24146" data-name="Rectangle 24146" width="48" height="48" rx="8" transform="translate(582 228)" fill="#0b80fd" opacity="0.08"/>
    <path id="facff0c9e456f713dd8e3a5d1978c953" d="M17,9V7A5,5,0,0,0,7,7V9a2.946,2.946,0,0,0-3,3v7a2.946,2.946,0,0,0,3,3H17a2.946,2.946,0,0,0,3-3V12A2.946,2.946,0,0,0,17,9ZM9,7a3,3,0,1,1,6,0V9H9Zm4,10a1,1,0,1,1-2,0V14a1,1,0,0,1,2,0Z" transform="translate(594 240)" fill="#0b80fd"/>
  </g>
</svg>
