<svg xmlns="http://www.w3.org/2000/svg" width="48" height="48" viewBox="0 0 48 48">
  <g id="Group_39065" data-name="Group 39065" transform="translate(-582 -228)">
    <rect id="Rectangle_24146" data-name="Rectangle 24146" width="48" height="48" rx="8" transform="translate(582 228)" fill="#ff8900" opacity="0.08"/>
    <g id="f34d2a78c22e2ef2449002adfc3d12a0" transform="translate(566.107 212.107)">
      <path id="Path_45237" data-name="Path 45237" d="M45.731,34.056,45.213,32.5l2.357-2.358a3.64,3.64,0,0,0-4.71,4.716l-8.005,8.007a3.642,3.642,0,0,0-4.715,4.716L32.5,45.221l1.557.513.517,1.553-2.357,2.358a3.642,3.642,0,0,0,4.715-4.716l8-8a3.642,3.642,0,0,0,4.715-4.716l-2.357,2.358Z" fill="#ff8900"/>
      <path id="Path_45238" data-name="Path 45238" d="M51.01,45.96a3.64,3.64,0,0,0-3.9-.818L39.33,37.356a3.642,3.642,0,0,0-4.715-4.716L36.972,35l-.517,1.557-1.552.518-2.362-2.362a3.642,3.642,0,0,0,4.715,4.716l7.788,7.79A3.641,3.641,0,1,0,51.01,45.96Zm-3.459,3.464a1.254,1.254,0,1,1,1.773,0A1.256,1.256,0,0,1,47.551,49.424Z" transform="translate(-2.294 -2.389)" fill="#ff8900"/>
    </g>
  </g>
</svg>
