<svg xmlns="http://www.w3.org/2000/svg" width="48" height="48" viewBox="0 0 48 48">
  <g id="Group_39112" data-name="Group 39112" transform="translate(-582 -228)">
    <rect id="Rectangle_24146" data-name="Rectangle 24146" width="48" height="48" rx="8" transform="translate(582 228)" fill="#025b9d" opacity="0.08"/>
    <path id="a963ed0f8843a4f8c5415b2e9e2107da" d="M19.977,11.952a.632.632,0,0,0-.632-.632H3.632A.632.632,0,0,0,3,11.952v9.095a2.88,2.88,0,0,0,2.88,2.893H21.152a4.156,4.156,0,0,1-1.175-2.88ZM4.617,14.478a.632.632,0,0,1,.632-.632h5.962a.632.632,0,0,1,.632.632v5.053a.632.632,0,0,1-.632.632H5.248a.632.632,0,0,1-.632-.632Zm12.909,8.2H5.248a.632.632,0,1,1,0-1.263H17.526a.632.632,0,1,1,0,1.263Zm0-2.526H13.737a.632.632,0,0,1,0-1.263h3.789a.632.632,0,0,1,0,1.263Zm0-2.526H13.737a.632.632,0,0,1,0-1.263h3.789a.632.632,0,0,1,0,1.263Zm0-2.526H13.737a.632.632,0,0,1,0-1.263h3.789a.632.632,0,0,1,0,1.263Zm-6.947,3.789H5.88V15.1h4.7ZM27,5.662l-.1,15.385a2.88,2.88,0,1,1-5.747,0l.088-10.4a.632.632,0,0,0-.632-.632H10.023V5.662a.632.632,0,0,1,.632-.632H26.368A.632.632,0,0,1,27,5.662Z" transform="translate(591 236.97)" fill="#025b9d"/>
  </g>
</svg>
