<svg xmlns="http://www.w3.org/2000/svg" width="48" height="48" viewBox="0 0 48 48">
  <g id="Group_39105" data-name="Group 39105" transform="translate(-582 -228)">
    <rect id="Rectangle_24146" data-name="Rectangle 24146" width="48" height="48" rx="8" transform="translate(582 228)" fill="#ff3100" opacity="0.08"/>
    <path id="e4d893b54c132d214379c23d03b76928" d="M0,10.3H17.588a.7.7,0,0,1,.262.075l3.375,2.813V10.675A.376.376,0,0,1,21.6,10.3H24V3.7H0ZM21.375,8.763H15.75a.375.375,0,0,1,0-.75h5.625a.376.376,0,0,1,.375.375A.353.353,0,0,1,21.375,8.763ZM2.625,5.387h18.75a.375.375,0,0,1,0,.75H2.625a.376.376,0,0,1-.375-.375A.353.353,0,0,1,2.625,5.387ZM0,21.813H2.175a.376.376,0,0,1,.375.375v2.737l3.675-3.038c.037-.075.15-.075.225-.075H24v-6.6H0ZM2.625,17.05h18.75a.375.375,0,0,1,0,.75H2.625a.376.376,0,0,1-.375-.375C2.213,17.2,2.4,17.05,2.625,17.05Zm0,2.588H8.25a.375.375,0,0,1,0,.75H2.625a.376.376,0,0,1-.375-.375C2.213,19.787,2.4,19.638,2.625,19.638Z" transform="translate(594 237.3)" fill="#ff3100"/>
  </g>
</svg>
