<svg xmlns="http://www.w3.org/2000/svg" width="48" height="48" viewBox="0 0 48 48">
  <g id="Group_39076" data-name="Group 39076" transform="translate(-582 -228)">
    <rect id="Rectangle_24146" data-name="Rectangle 24146" width="48" height="48" rx="8" transform="translate(582 228)" fill="#8900ff" opacity="0.08"/>
    <g id="_7783670ad52b6ffcbe602a1ad07c2344" data-name="7783670ad52b6ffcbe602a1ad07c2344" transform="translate(596 242)">
      <path id="Path_45243" data-name="Path 45243" d="M17.435,0H2.565A2.569,2.569,0,0,0,0,2.565V16.285H2.8a1.259,1.259,0,0,1,1.259,1.259v2.447H17.435A2.569,2.569,0,0,0,20,17.427V2.565A2.569,2.569,0,0,0,17.435,0ZM10,11.924H3.316a.63.63,0,0,1,0-1.259H10a.63.63,0,0,1,0,1.259Zm0-3.316H3.316a.63.63,0,1,1,0-1.259H10a.63.63,0,0,1,0,1.259ZM10,5.3H3.316a.63.63,0,1,1,0-1.259H10A.63.63,0,0,1,10,5.3Zm4.709,9.075a.231.231,0,0,1-.353,0l-1.83-2.128h.7a.231.231,0,0,0,.231-.231V4.9a.231.231,0,0,1,.231-.231h1.679A.235.235,0,0,1,15.6,4.9v7.114a.227.227,0,0,0,.231.231h.693Z" fill="#8900ff"/>
      <path id="Path_45244" data-name="Path 45244" d="M0,40.43l3.324,3.03V41.286a.839.839,0,0,0-.839-.839Z" transform="translate(0 -23.46)" fill="#8900ff"/>
    </g>
  </g>
</svg>
