<svg xmlns="http://www.w3.org/2000/svg" width="48" height="48" viewBox="0 0 48 48">
  <g id="Group_39080" data-name="Group 39080" transform="translate(-582 -228)">
    <rect id="Rectangle_24146" data-name="Rectangle 24146" width="48" height="48" rx="8" transform="translate(582 228)" fill="#d85b30" opacity="0.08"/>
    <path id="Path_45246" data-name="Path 45246" d="M30,1019.54l-2.837.907a3.5,3.5,0,0,1-5.4,1.728l-1.764.563v11.347c-.013,3.169,2.436,5.348,4.983,6.765A21.477,21.477,0,0,0,30,1042.835a21.431,21.431,0,0,0,5.007-1.983c2.544-1.417,4.993-3.6,4.993-6.767v-11.346l-1.761-.563a3.728,3.728,0,0,1-1.987.675h0a3.706,3.706,0,0,1-3.408-2.4l-2.842-.91Zm0,7.252,1.468,2.837,3.152.522-2.244,2.273.477,3.158L30,1034.152l-2.857,1.43.478-3.158-2.242-2.275,3.152-.52,1.47-2.837Z" transform="translate(575.999 -779.537)" fill="#d85b30"/>
  </g>
</svg>
