<svg xmlns="http://www.w3.org/2000/svg" width="48" height="48" viewBox="0 0 48 48">
  <g id="Group_39119" data-name="Group 39119" transform="translate(-582 -228)">
    <rect id="Rectangle_24146" data-name="Rectangle 24146" width="48" height="48" rx="8" transform="translate(582 228)" opacity="0.08"/>
    <path id="f9da44225c1de7b53661f31597d530d7" d="M16.5,0A5.5,5.5,0,0,1,22,5.5v11A5.5,5.5,0,0,1,16.5,22H5.5A5.5,5.5,0,0,1,0,16.5V5.5A5.5,5.5,0,0,1,5.5,0ZM4.155,3.3a.855.855,0,0,0-.684,1.369l5.508,7.342-4.612,5.27a.856.856,0,0,0,1.289,1.127l4.371-5,3.711,4.947a.857.857,0,0,0,.684.342h3.423a.855.855,0,0,0,.684-1.369L13.022,9.988l4.612-5.269a.856.856,0,0,0-1.289-1.127l-4.371,5L8.262,3.643A.854.854,0,0,0,7.578,3.3ZM16.134,16.989H14.85L5.866,5.011H7.15Z" transform="translate(595 241)"/>
  </g>
</svg>
