<svg xmlns="http://www.w3.org/2000/svg" width="48" height="48" viewBox="0 0 48 48">
  <g id="Group_39077" data-name="Group 39077" transform="translate(-582 -228)">
    <rect id="Rectangle_24146" data-name="Rectangle 24146" width="48" height="48" rx="8" transform="translate(582 228)" fill="#352ee6" opacity="0.08"/>
    <g id="Group_39084" data-name="Group 39084" transform="translate(156 -767)">
      <path id="Path_45242" data-name="Path 45242" d="M10.4,13.4A4.2,4.2,0,1,0,6.2,9.2,4.2,4.2,0,0,0,10.4,13.4Zm0-6A1.8,1.8,0,1,1,8.6,9.2,1.8,1.8,0,0,1,10.4,7.4Zm0,8.1C7.592,15.5,2,16.9,2,19.7v.9a1.2,1.2,0,0,0,1.2,1.2H17.6a1.2,1.2,0,0,0,1.2-1.2v-.9C18.8,16.9,13.208,15.5,10.4,15.5ZM4.808,19.4A11.57,11.57,0,0,1,10.4,17.9a11.57,11.57,0,0,1,5.592,1.5Z" transform="translate(436 1006)" fill="#352ee6"/>
      <path id="Path_45242-2" data-name="Path 45242" d="M16.548,15.572A5.031,5.031,0,0,1,18.9,19.7v2.1h3.6a1.2,1.2,0,0,0,1.2-1.2v-.9C23.7,17.276,19.5,15.9,16.548,15.572ZM15.3,13.4a4.2,4.2,0,0,0,0-8.4,4.135,4.135,0,0,0-1.8.42,6.553,6.553,0,0,1,0,7.56A4.135,4.135,0,0,0,15.3,13.4Z" transform="translate(438.3 1006)" fill="#352ee6" opacity="0.5"/>
    </g>
  </g>
</svg>
