<svg xmlns="http://www.w3.org/2000/svg" width="48" height="48" viewBox="0 0 48 48">
  <g id="Group_39115" data-name="Group 39115" transform="translate(-582 -228)">
    <rect id="Rectangle_24146" data-name="Rectangle 24146" width="48" height="48" rx="8" transform="translate(582 228)" fill="#354a90" opacity="0.08"/>
    <path id="c275da62a737e9e440232d6c41c485f7" d="M19.5,6.934H3.875V6.309l13.75-1.1v1.1H19.5V4.434a2.111,2.111,0,0,0-2.474-2.146L4.475,4.08A2.978,2.978,0,0,0,2,6.934v12.5a2.5,2.5,0,0,0,2.5,2.5h15a2.5,2.5,0,0,0,2.5-2.5v-10A2.5,2.5,0,0,0,19.5,6.934Zm-1.875,8.757A1.876,1.876,0,1,1,19.5,13.817a1.876,1.876,0,0,1-1.876,1.875Z" transform="translate(594 239.737)" fill="#354a90"/>
  </g>
</svg>
